%TF.GenerationSoftware,KiCad,Pcbnew,9.0.6*%
%TF.CreationDate,2025-12-02T14:29:33+01:00*%
%TF.ProjectId,NANO_Shield,4e414e4f-5f53-4686-9965-6c642e6b6963,rev?*%
%TF.SameCoordinates,Original*%
%TF.FileFunction,Legend,Top*%
%TF.FilePolarity,Positive*%
%FSLAX46Y46*%
G04 Gerber Fmt 4.6, Leading zero omitted, Abs format (unit mm)*
G04 Created by KiCad (PCBNEW 9.0.6) date 2025-12-02 14:29:33*
%MOMM*%
%LPD*%
G01*
G04 APERTURE LIST*
%ADD10C,0.100000*%
%ADD11C,0.150000*%
%ADD12C,0.120000*%
G04 APERTURE END LIST*
D10*
X125871429Y-303060133D02*
X126480953Y-303060133D01*
X126176191Y-303364895D02*
X126176191Y-302755371D01*
X126900000Y-303364895D02*
X127052381Y-303364895D01*
X127052381Y-303364895D02*
X127128571Y-303326800D01*
X127128571Y-303326800D02*
X127166667Y-303288704D01*
X127166667Y-303288704D02*
X127242857Y-303174419D01*
X127242857Y-303174419D02*
X127280952Y-303022038D01*
X127280952Y-303022038D02*
X127280952Y-302717276D01*
X127280952Y-302717276D02*
X127242857Y-302641085D01*
X127242857Y-302641085D02*
X127204762Y-302602990D01*
X127204762Y-302602990D02*
X127128571Y-302564895D01*
X127128571Y-302564895D02*
X126976190Y-302564895D01*
X126976190Y-302564895D02*
X126900000Y-302602990D01*
X126900000Y-302602990D02*
X126861905Y-302641085D01*
X126861905Y-302641085D02*
X126823809Y-302717276D01*
X126823809Y-302717276D02*
X126823809Y-302907752D01*
X126823809Y-302907752D02*
X126861905Y-302983942D01*
X126861905Y-302983942D02*
X126900000Y-303022038D01*
X126900000Y-303022038D02*
X126976190Y-303060133D01*
X126976190Y-303060133D02*
X127128571Y-303060133D01*
X127128571Y-303060133D02*
X127204762Y-303022038D01*
X127204762Y-303022038D02*
X127242857Y-302983942D01*
X127242857Y-302983942D02*
X127280952Y-302907752D01*
X127509524Y-302564895D02*
X127776191Y-303364895D01*
X127776191Y-303364895D02*
X128042857Y-302564895D01*
X122190476Y-302602990D02*
X122114286Y-302564895D01*
X122114286Y-302564895D02*
X122000000Y-302564895D01*
X122000000Y-302564895D02*
X121885714Y-302602990D01*
X121885714Y-302602990D02*
X121809524Y-302679180D01*
X121809524Y-302679180D02*
X121771429Y-302755371D01*
X121771429Y-302755371D02*
X121733333Y-302907752D01*
X121733333Y-302907752D02*
X121733333Y-303022038D01*
X121733333Y-303022038D02*
X121771429Y-303174419D01*
X121771429Y-303174419D02*
X121809524Y-303250609D01*
X121809524Y-303250609D02*
X121885714Y-303326800D01*
X121885714Y-303326800D02*
X122000000Y-303364895D01*
X122000000Y-303364895D02*
X122076191Y-303364895D01*
X122076191Y-303364895D02*
X122190476Y-303326800D01*
X122190476Y-303326800D02*
X122228572Y-303288704D01*
X122228572Y-303288704D02*
X122228572Y-303022038D01*
X122228572Y-303022038D02*
X122076191Y-303022038D01*
X122571429Y-303364895D02*
X122571429Y-302564895D01*
X122571429Y-302564895D02*
X123028572Y-303364895D01*
X123028572Y-303364895D02*
X123028572Y-302564895D01*
X123409524Y-303364895D02*
X123409524Y-302564895D01*
X123409524Y-302564895D02*
X123600000Y-302564895D01*
X123600000Y-302564895D02*
X123714286Y-302602990D01*
X123714286Y-302602990D02*
X123790476Y-302679180D01*
X123790476Y-302679180D02*
X123828571Y-302755371D01*
X123828571Y-302755371D02*
X123866667Y-302907752D01*
X123866667Y-302907752D02*
X123866667Y-303022038D01*
X123866667Y-303022038D02*
X123828571Y-303174419D01*
X123828571Y-303174419D02*
X123790476Y-303250609D01*
X123790476Y-303250609D02*
X123714286Y-303326800D01*
X123714286Y-303326800D02*
X123600000Y-303364895D01*
X123600000Y-303364895D02*
X123409524Y-303364895D01*
X118590476Y-350202990D02*
X118514286Y-350164895D01*
X118514286Y-350164895D02*
X118400000Y-350164895D01*
X118400000Y-350164895D02*
X118285714Y-350202990D01*
X118285714Y-350202990D02*
X118209524Y-350279180D01*
X118209524Y-350279180D02*
X118171429Y-350355371D01*
X118171429Y-350355371D02*
X118133333Y-350507752D01*
X118133333Y-350507752D02*
X118133333Y-350622038D01*
X118133333Y-350622038D02*
X118171429Y-350774419D01*
X118171429Y-350774419D02*
X118209524Y-350850609D01*
X118209524Y-350850609D02*
X118285714Y-350926800D01*
X118285714Y-350926800D02*
X118400000Y-350964895D01*
X118400000Y-350964895D02*
X118476191Y-350964895D01*
X118476191Y-350964895D02*
X118590476Y-350926800D01*
X118590476Y-350926800D02*
X118628572Y-350888704D01*
X118628572Y-350888704D02*
X118628572Y-350622038D01*
X118628572Y-350622038D02*
X118476191Y-350622038D01*
X118971429Y-350964895D02*
X118971429Y-350164895D01*
X118971429Y-350164895D02*
X119428572Y-350964895D01*
X119428572Y-350964895D02*
X119428572Y-350164895D01*
X119809524Y-350964895D02*
X119809524Y-350164895D01*
X119809524Y-350164895D02*
X120000000Y-350164895D01*
X120000000Y-350164895D02*
X120114286Y-350202990D01*
X120114286Y-350202990D02*
X120190476Y-350279180D01*
X120190476Y-350279180D02*
X120228571Y-350355371D01*
X120228571Y-350355371D02*
X120266667Y-350507752D01*
X120266667Y-350507752D02*
X120266667Y-350622038D01*
X120266667Y-350622038D02*
X120228571Y-350774419D01*
X120228571Y-350774419D02*
X120190476Y-350850609D01*
X120190476Y-350850609D02*
X120114286Y-350926800D01*
X120114286Y-350926800D02*
X120000000Y-350964895D01*
X120000000Y-350964895D02*
X119809524Y-350964895D01*
X117917429Y-348120133D02*
X118526953Y-348120133D01*
X118222191Y-348424895D02*
X118222191Y-347815371D01*
X119288857Y-347624895D02*
X118907905Y-347624895D01*
X118907905Y-347624895D02*
X118869809Y-348005847D01*
X118869809Y-348005847D02*
X118907905Y-347967752D01*
X118907905Y-347967752D02*
X118984095Y-347929657D01*
X118984095Y-347929657D02*
X119174571Y-347929657D01*
X119174571Y-347929657D02*
X119250762Y-347967752D01*
X119250762Y-347967752D02*
X119288857Y-348005847D01*
X119288857Y-348005847D02*
X119326952Y-348082038D01*
X119326952Y-348082038D02*
X119326952Y-348272514D01*
X119326952Y-348272514D02*
X119288857Y-348348704D01*
X119288857Y-348348704D02*
X119250762Y-348386800D01*
X119250762Y-348386800D02*
X119174571Y-348424895D01*
X119174571Y-348424895D02*
X118984095Y-348424895D01*
X118984095Y-348424895D02*
X118907905Y-348386800D01*
X118907905Y-348386800D02*
X118869809Y-348348704D01*
X119555524Y-347624895D02*
X119822191Y-348424895D01*
X119822191Y-348424895D02*
X120088857Y-347624895D01*
D11*
X144823810Y-320674819D02*
X145347619Y-320008152D01*
X144823810Y-320008152D02*
X145347619Y-320674819D01*
X144871429Y-328009104D02*
X145347619Y-328009104D01*
X144776191Y-328294819D02*
X145109524Y-327294819D01*
X145109524Y-327294819D02*
X145442857Y-328294819D01*
X145776191Y-328294819D02*
X145776191Y-327628152D01*
X145776191Y-327818628D02*
X145823810Y-327723390D01*
X145823810Y-327723390D02*
X145871429Y-327675771D01*
X145871429Y-327675771D02*
X145966667Y-327628152D01*
X145966667Y-327628152D02*
X146061905Y-327628152D01*
X146776191Y-328247200D02*
X146680953Y-328294819D01*
X146680953Y-328294819D02*
X146490477Y-328294819D01*
X146490477Y-328294819D02*
X146395239Y-328247200D01*
X146395239Y-328247200D02*
X146347620Y-328151961D01*
X146347620Y-328151961D02*
X146347620Y-327771009D01*
X146347620Y-327771009D02*
X146395239Y-327675771D01*
X146395239Y-327675771D02*
X146490477Y-327628152D01*
X146490477Y-327628152D02*
X146680953Y-327628152D01*
X146680953Y-327628152D02*
X146776191Y-327675771D01*
X146776191Y-327675771D02*
X146823810Y-327771009D01*
X146823810Y-327771009D02*
X146823810Y-327866247D01*
X146823810Y-327866247D02*
X146347620Y-327961485D01*
X147109525Y-327628152D02*
X147490477Y-327628152D01*
X147252382Y-328294819D02*
X147252382Y-327437676D01*
X147252382Y-327437676D02*
X147300001Y-327342438D01*
X147300001Y-327342438D02*
X147395239Y-327294819D01*
X147395239Y-327294819D02*
X147490477Y-327294819D01*
X144823810Y-318134819D02*
X145347619Y-317468152D01*
X144823810Y-317468152D02*
X145347619Y-318134819D01*
X144871429Y-342630057D02*
X144919048Y-342582438D01*
X144919048Y-342582438D02*
X145014286Y-342534819D01*
X145014286Y-342534819D02*
X145252381Y-342534819D01*
X145252381Y-342534819D02*
X145347619Y-342582438D01*
X145347619Y-342582438D02*
X145395238Y-342630057D01*
X145395238Y-342630057D02*
X145442857Y-342725295D01*
X145442857Y-342725295D02*
X145442857Y-342820533D01*
X145442857Y-342820533D02*
X145395238Y-342963390D01*
X145395238Y-342963390D02*
X144823810Y-343534819D01*
X144823810Y-343534819D02*
X145442857Y-343534819D01*
X144823810Y-329834819D02*
X145490476Y-329834819D01*
X145490476Y-329834819D02*
X145061905Y-330834819D01*
X144776191Y-314594819D02*
X145109524Y-315594819D01*
X145109524Y-315594819D02*
X145442857Y-314594819D01*
X145776191Y-315594819D02*
X145776191Y-314928152D01*
X145776191Y-314594819D02*
X145728572Y-314642438D01*
X145728572Y-314642438D02*
X145776191Y-314690057D01*
X145776191Y-314690057D02*
X145823810Y-314642438D01*
X145823810Y-314642438D02*
X145776191Y-314594819D01*
X145776191Y-314594819D02*
X145776191Y-314690057D01*
X146252381Y-314928152D02*
X146252381Y-315594819D01*
X146252381Y-315023390D02*
X146300000Y-314975771D01*
X146300000Y-314975771D02*
X146395238Y-314928152D01*
X146395238Y-314928152D02*
X146538095Y-314928152D01*
X146538095Y-314928152D02*
X146633333Y-314975771D01*
X146633333Y-314975771D02*
X146680952Y-315071009D01*
X146680952Y-315071009D02*
X146680952Y-315594819D01*
X144823810Y-323214819D02*
X145347619Y-322548152D01*
X144823810Y-322548152D02*
X145347619Y-323214819D01*
X144823810Y-339994819D02*
X145442857Y-339994819D01*
X145442857Y-339994819D02*
X145109524Y-340375771D01*
X145109524Y-340375771D02*
X145252381Y-340375771D01*
X145252381Y-340375771D02*
X145347619Y-340423390D01*
X145347619Y-340423390D02*
X145395238Y-340471009D01*
X145395238Y-340471009D02*
X145442857Y-340566247D01*
X145442857Y-340566247D02*
X145442857Y-340804342D01*
X145442857Y-340804342D02*
X145395238Y-340899580D01*
X145395238Y-340899580D02*
X145347619Y-340947200D01*
X145347619Y-340947200D02*
X145252381Y-340994819D01*
X145252381Y-340994819D02*
X144966667Y-340994819D01*
X144966667Y-340994819D02*
X144871429Y-340947200D01*
X144871429Y-340947200D02*
X144823810Y-340899580D01*
X145347619Y-337788152D02*
X145347619Y-338454819D01*
X145109524Y-337407200D02*
X144871429Y-338121485D01*
X144871429Y-338121485D02*
X145490476Y-338121485D01*
X145442857Y-346074819D02*
X144871429Y-346074819D01*
X145157143Y-346074819D02*
X145157143Y-345074819D01*
X145157143Y-345074819D02*
X145061905Y-345217676D01*
X145061905Y-345217676D02*
X144966667Y-345312914D01*
X144966667Y-345312914D02*
X144871429Y-345360533D01*
X145109524Y-347614819D02*
X145204762Y-347614819D01*
X145204762Y-347614819D02*
X145300000Y-347662438D01*
X145300000Y-347662438D02*
X145347619Y-347710057D01*
X145347619Y-347710057D02*
X145395238Y-347805295D01*
X145395238Y-347805295D02*
X145442857Y-347995771D01*
X145442857Y-347995771D02*
X145442857Y-348233866D01*
X145442857Y-348233866D02*
X145395238Y-348424342D01*
X145395238Y-348424342D02*
X145347619Y-348519580D01*
X145347619Y-348519580D02*
X145300000Y-348567200D01*
X145300000Y-348567200D02*
X145204762Y-348614819D01*
X145204762Y-348614819D02*
X145109524Y-348614819D01*
X145109524Y-348614819D02*
X145014286Y-348567200D01*
X145014286Y-348567200D02*
X144966667Y-348519580D01*
X144966667Y-348519580D02*
X144919048Y-348424342D01*
X144919048Y-348424342D02*
X144871429Y-348233866D01*
X144871429Y-348233866D02*
X144871429Y-347995771D01*
X144871429Y-347995771D02*
X144919048Y-347805295D01*
X144919048Y-347805295D02*
X144966667Y-347710057D01*
X144966667Y-347710057D02*
X145014286Y-347662438D01*
X145014286Y-347662438D02*
X145109524Y-347614819D01*
X145490476Y-325500819D02*
X145157143Y-325024628D01*
X144919048Y-325500819D02*
X144919048Y-324500819D01*
X144919048Y-324500819D02*
X145300000Y-324500819D01*
X145300000Y-324500819D02*
X145395238Y-324548438D01*
X145395238Y-324548438D02*
X145442857Y-324596057D01*
X145442857Y-324596057D02*
X145490476Y-324691295D01*
X145490476Y-324691295D02*
X145490476Y-324834152D01*
X145490476Y-324834152D02*
X145442857Y-324929390D01*
X145442857Y-324929390D02*
X145395238Y-324977009D01*
X145395238Y-324977009D02*
X145300000Y-325024628D01*
X145300000Y-325024628D02*
X144919048Y-325024628D01*
X146300000Y-325453200D02*
X146204762Y-325500819D01*
X146204762Y-325500819D02*
X146014286Y-325500819D01*
X146014286Y-325500819D02*
X145919048Y-325453200D01*
X145919048Y-325453200D02*
X145871429Y-325357961D01*
X145871429Y-325357961D02*
X145871429Y-324977009D01*
X145871429Y-324977009D02*
X145919048Y-324881771D01*
X145919048Y-324881771D02*
X146014286Y-324834152D01*
X146014286Y-324834152D02*
X146204762Y-324834152D01*
X146204762Y-324834152D02*
X146300000Y-324881771D01*
X146300000Y-324881771D02*
X146347619Y-324977009D01*
X146347619Y-324977009D02*
X146347619Y-325072247D01*
X146347619Y-325072247D02*
X145871429Y-325167485D01*
X146728572Y-325453200D02*
X146823810Y-325500819D01*
X146823810Y-325500819D02*
X147014286Y-325500819D01*
X147014286Y-325500819D02*
X147109524Y-325453200D01*
X147109524Y-325453200D02*
X147157143Y-325357961D01*
X147157143Y-325357961D02*
X147157143Y-325310342D01*
X147157143Y-325310342D02*
X147109524Y-325215104D01*
X147109524Y-325215104D02*
X147014286Y-325167485D01*
X147014286Y-325167485D02*
X146871429Y-325167485D01*
X146871429Y-325167485D02*
X146776191Y-325119866D01*
X146776191Y-325119866D02*
X146728572Y-325024628D01*
X146728572Y-325024628D02*
X146728572Y-324977009D01*
X146728572Y-324977009D02*
X146776191Y-324881771D01*
X146776191Y-324881771D02*
X146871429Y-324834152D01*
X146871429Y-324834152D02*
X147014286Y-324834152D01*
X147014286Y-324834152D02*
X147109524Y-324881771D01*
X144823810Y-312054819D02*
X145442857Y-312054819D01*
X145442857Y-312054819D02*
X145109524Y-312435771D01*
X145109524Y-312435771D02*
X145252381Y-312435771D01*
X145252381Y-312435771D02*
X145347619Y-312483390D01*
X145347619Y-312483390D02*
X145395238Y-312531009D01*
X145395238Y-312531009D02*
X145442857Y-312626247D01*
X145442857Y-312626247D02*
X145442857Y-312864342D01*
X145442857Y-312864342D02*
X145395238Y-312959580D01*
X145395238Y-312959580D02*
X145347619Y-313007200D01*
X145347619Y-313007200D02*
X145252381Y-313054819D01*
X145252381Y-313054819D02*
X144966667Y-313054819D01*
X144966667Y-313054819D02*
X144871429Y-313007200D01*
X144871429Y-313007200D02*
X144823810Y-312959580D01*
X145919048Y-313007200D02*
X145919048Y-313054819D01*
X145919048Y-313054819D02*
X145871429Y-313150057D01*
X145871429Y-313150057D02*
X145823810Y-313197676D01*
X146252381Y-312054819D02*
X146871428Y-312054819D01*
X146871428Y-312054819D02*
X146538095Y-312435771D01*
X146538095Y-312435771D02*
X146680952Y-312435771D01*
X146680952Y-312435771D02*
X146776190Y-312483390D01*
X146776190Y-312483390D02*
X146823809Y-312531009D01*
X146823809Y-312531009D02*
X146871428Y-312626247D01*
X146871428Y-312626247D02*
X146871428Y-312864342D01*
X146871428Y-312864342D02*
X146823809Y-312959580D01*
X146823809Y-312959580D02*
X146776190Y-313007200D01*
X146776190Y-313007200D02*
X146680952Y-313054819D01*
X146680952Y-313054819D02*
X146395238Y-313054819D01*
X146395238Y-313054819D02*
X146300000Y-313007200D01*
X146300000Y-313007200D02*
X146252381Y-312959580D01*
X147157143Y-312054819D02*
X147490476Y-313054819D01*
X147490476Y-313054819D02*
X147823809Y-312054819D01*
X145347619Y-332628819D02*
X145157143Y-332628819D01*
X145157143Y-332628819D02*
X145061905Y-332676438D01*
X145061905Y-332676438D02*
X145014286Y-332724057D01*
X145014286Y-332724057D02*
X144919048Y-332866914D01*
X144919048Y-332866914D02*
X144871429Y-333057390D01*
X144871429Y-333057390D02*
X144871429Y-333438342D01*
X144871429Y-333438342D02*
X144919048Y-333533580D01*
X144919048Y-333533580D02*
X144966667Y-333581200D01*
X144966667Y-333581200D02*
X145061905Y-333628819D01*
X145061905Y-333628819D02*
X145252381Y-333628819D01*
X145252381Y-333628819D02*
X145347619Y-333581200D01*
X145347619Y-333581200D02*
X145395238Y-333533580D01*
X145395238Y-333533580D02*
X145442857Y-333438342D01*
X145442857Y-333438342D02*
X145442857Y-333200247D01*
X145442857Y-333200247D02*
X145395238Y-333105009D01*
X145395238Y-333105009D02*
X145347619Y-333057390D01*
X145347619Y-333057390D02*
X145252381Y-333009771D01*
X145252381Y-333009771D02*
X145061905Y-333009771D01*
X145061905Y-333009771D02*
X144966667Y-333057390D01*
X144966667Y-333057390D02*
X144919048Y-333105009D01*
X144919048Y-333105009D02*
X144871429Y-333200247D01*
X145395238Y-334914819D02*
X144919048Y-334914819D01*
X144919048Y-334914819D02*
X144871429Y-335391009D01*
X144871429Y-335391009D02*
X144919048Y-335343390D01*
X144919048Y-335343390D02*
X145014286Y-335295771D01*
X145014286Y-335295771D02*
X145252381Y-335295771D01*
X145252381Y-335295771D02*
X145347619Y-335343390D01*
X145347619Y-335343390D02*
X145395238Y-335391009D01*
X145395238Y-335391009D02*
X145442857Y-335486247D01*
X145442857Y-335486247D02*
X145442857Y-335724342D01*
X145442857Y-335724342D02*
X145395238Y-335819580D01*
X145395238Y-335819580D02*
X145347619Y-335867200D01*
X145347619Y-335867200D02*
X145252381Y-335914819D01*
X145252381Y-335914819D02*
X145014286Y-335914819D01*
X145014286Y-335914819D02*
X144919048Y-335867200D01*
X144919048Y-335867200D02*
X144871429Y-335819580D01*
X144919048Y-310133866D02*
X145680953Y-310133866D01*
X145300000Y-310514819D02*
X145300000Y-309752914D01*
X146633333Y-309514819D02*
X146157143Y-309514819D01*
X146157143Y-309514819D02*
X146109524Y-309991009D01*
X146109524Y-309991009D02*
X146157143Y-309943390D01*
X146157143Y-309943390D02*
X146252381Y-309895771D01*
X146252381Y-309895771D02*
X146490476Y-309895771D01*
X146490476Y-309895771D02*
X146585714Y-309943390D01*
X146585714Y-309943390D02*
X146633333Y-309991009D01*
X146633333Y-309991009D02*
X146680952Y-310086247D01*
X146680952Y-310086247D02*
X146680952Y-310324342D01*
X146680952Y-310324342D02*
X146633333Y-310419580D01*
X146633333Y-310419580D02*
X146585714Y-310467200D01*
X146585714Y-310467200D02*
X146490476Y-310514819D01*
X146490476Y-310514819D02*
X146252381Y-310514819D01*
X146252381Y-310514819D02*
X146157143Y-310467200D01*
X146157143Y-310467200D02*
X146109524Y-310419580D01*
X146966667Y-309514819D02*
X147300000Y-310514819D01*
X147300000Y-310514819D02*
X147633333Y-309514819D01*
X113406819Y-310209523D02*
X113406819Y-310685713D01*
X113406819Y-310685713D02*
X113883009Y-310733332D01*
X113883009Y-310733332D02*
X113835390Y-310685713D01*
X113835390Y-310685713D02*
X113787771Y-310590475D01*
X113787771Y-310590475D02*
X113787771Y-310352380D01*
X113787771Y-310352380D02*
X113835390Y-310257142D01*
X113835390Y-310257142D02*
X113883009Y-310209523D01*
X113883009Y-310209523D02*
X113978247Y-310161904D01*
X113978247Y-310161904D02*
X114216342Y-310161904D01*
X114216342Y-310161904D02*
X114311580Y-310209523D01*
X114311580Y-310209523D02*
X114359200Y-310257142D01*
X114359200Y-310257142D02*
X114406819Y-310352380D01*
X114406819Y-310352380D02*
X114406819Y-310590475D01*
X114406819Y-310590475D02*
X114359200Y-310685713D01*
X114359200Y-310685713D02*
X114311580Y-310733332D01*
X113406819Y-309876189D02*
X114406819Y-309542856D01*
X114406819Y-309542856D02*
X113406819Y-309209523D01*
X114025866Y-308876189D02*
X114025866Y-308114285D01*
X114406819Y-308495237D02*
X113644914Y-308495237D01*
X117454819Y-310852380D02*
X116454819Y-310852380D01*
X116454819Y-310852380D02*
X116454819Y-310614285D01*
X116454819Y-310614285D02*
X116502438Y-310471428D01*
X116502438Y-310471428D02*
X116597676Y-310376190D01*
X116597676Y-310376190D02*
X116692914Y-310328571D01*
X116692914Y-310328571D02*
X116883390Y-310280952D01*
X116883390Y-310280952D02*
X117026247Y-310280952D01*
X117026247Y-310280952D02*
X117216723Y-310328571D01*
X117216723Y-310328571D02*
X117311961Y-310376190D01*
X117311961Y-310376190D02*
X117407200Y-310471428D01*
X117407200Y-310471428D02*
X117454819Y-310614285D01*
X117454819Y-310614285D02*
X117454819Y-310852380D01*
X117454819Y-309423809D02*
X116931009Y-309423809D01*
X116931009Y-309423809D02*
X116835771Y-309471428D01*
X116835771Y-309471428D02*
X116788152Y-309566666D01*
X116788152Y-309566666D02*
X116788152Y-309757142D01*
X116788152Y-309757142D02*
X116835771Y-309852380D01*
X117407200Y-309423809D02*
X117454819Y-309519047D01*
X117454819Y-309519047D02*
X117454819Y-309757142D01*
X117454819Y-309757142D02*
X117407200Y-309852380D01*
X117407200Y-309852380D02*
X117311961Y-309899999D01*
X117311961Y-309899999D02*
X117216723Y-309899999D01*
X117216723Y-309899999D02*
X117121485Y-309852380D01*
X117121485Y-309852380D02*
X117073866Y-309757142D01*
X117073866Y-309757142D02*
X117073866Y-309519047D01*
X117073866Y-309519047D02*
X117026247Y-309423809D01*
X116788152Y-309090475D02*
X116788152Y-308709523D01*
X116454819Y-308947618D02*
X117311961Y-308947618D01*
X117311961Y-308947618D02*
X117407200Y-308899999D01*
X117407200Y-308899999D02*
X117454819Y-308804761D01*
X117454819Y-308804761D02*
X117454819Y-308709523D01*
X117454819Y-307947618D02*
X116931009Y-307947618D01*
X116931009Y-307947618D02*
X116835771Y-307995237D01*
X116835771Y-307995237D02*
X116788152Y-308090475D01*
X116788152Y-308090475D02*
X116788152Y-308280951D01*
X116788152Y-308280951D02*
X116835771Y-308376189D01*
X117407200Y-307947618D02*
X117454819Y-308042856D01*
X117454819Y-308042856D02*
X117454819Y-308280951D01*
X117454819Y-308280951D02*
X117407200Y-308376189D01*
X117407200Y-308376189D02*
X117311961Y-308423808D01*
X117311961Y-308423808D02*
X117216723Y-308423808D01*
X117216723Y-308423808D02*
X117121485Y-308376189D01*
X117121485Y-308376189D02*
X117073866Y-308280951D01*
X117073866Y-308280951D02*
X117073866Y-308042856D01*
X117073866Y-308042856D02*
X117026247Y-307947618D01*
X110660438Y-310161904D02*
X110612819Y-310257142D01*
X110612819Y-310257142D02*
X110612819Y-310399999D01*
X110612819Y-310399999D02*
X110660438Y-310542856D01*
X110660438Y-310542856D02*
X110755676Y-310638094D01*
X110755676Y-310638094D02*
X110850914Y-310685713D01*
X110850914Y-310685713D02*
X111041390Y-310733332D01*
X111041390Y-310733332D02*
X111184247Y-310733332D01*
X111184247Y-310733332D02*
X111374723Y-310685713D01*
X111374723Y-310685713D02*
X111469961Y-310638094D01*
X111469961Y-310638094D02*
X111565200Y-310542856D01*
X111565200Y-310542856D02*
X111612819Y-310399999D01*
X111612819Y-310399999D02*
X111612819Y-310304761D01*
X111612819Y-310304761D02*
X111565200Y-310161904D01*
X111565200Y-310161904D02*
X111517580Y-310114285D01*
X111517580Y-310114285D02*
X111184247Y-310114285D01*
X111184247Y-310114285D02*
X111184247Y-310304761D01*
X111612819Y-309685713D02*
X110612819Y-309685713D01*
X110612819Y-309685713D02*
X111612819Y-309114285D01*
X111612819Y-309114285D02*
X110612819Y-309114285D01*
X111612819Y-308638094D02*
X110612819Y-308638094D01*
X110612819Y-308638094D02*
X110612819Y-308399999D01*
X110612819Y-308399999D02*
X110660438Y-308257142D01*
X110660438Y-308257142D02*
X110755676Y-308161904D01*
X110755676Y-308161904D02*
X110850914Y-308114285D01*
X110850914Y-308114285D02*
X111041390Y-308066666D01*
X111041390Y-308066666D02*
X111184247Y-308066666D01*
X111184247Y-308066666D02*
X111374723Y-308114285D01*
X111374723Y-308114285D02*
X111469961Y-308161904D01*
X111469961Y-308161904D02*
X111565200Y-308257142D01*
X111565200Y-308257142D02*
X111612819Y-308399999D01*
X111612819Y-308399999D02*
X111612819Y-308638094D01*
X108260286Y-317150057D02*
X108307905Y-317102438D01*
X108307905Y-317102438D02*
X108403143Y-317054819D01*
X108403143Y-317054819D02*
X108641238Y-317054819D01*
X108641238Y-317054819D02*
X108736476Y-317102438D01*
X108736476Y-317102438D02*
X108784095Y-317150057D01*
X108784095Y-317150057D02*
X108831714Y-317245295D01*
X108831714Y-317245295D02*
X108831714Y-317340533D01*
X108831714Y-317340533D02*
X108784095Y-317483390D01*
X108784095Y-317483390D02*
X108212667Y-318054819D01*
X108212667Y-318054819D02*
X108831714Y-318054819D01*
X108736476Y-327214819D02*
X108546000Y-327214819D01*
X108546000Y-327214819D02*
X108450762Y-327262438D01*
X108450762Y-327262438D02*
X108403143Y-327310057D01*
X108403143Y-327310057D02*
X108307905Y-327452914D01*
X108307905Y-327452914D02*
X108260286Y-327643390D01*
X108260286Y-327643390D02*
X108260286Y-328024342D01*
X108260286Y-328024342D02*
X108307905Y-328119580D01*
X108307905Y-328119580D02*
X108355524Y-328167200D01*
X108355524Y-328167200D02*
X108450762Y-328214819D01*
X108450762Y-328214819D02*
X108641238Y-328214819D01*
X108641238Y-328214819D02*
X108736476Y-328167200D01*
X108736476Y-328167200D02*
X108784095Y-328119580D01*
X108784095Y-328119580D02*
X108831714Y-328024342D01*
X108831714Y-328024342D02*
X108831714Y-327786247D01*
X108831714Y-327786247D02*
X108784095Y-327691009D01*
X108784095Y-327691009D02*
X108736476Y-327643390D01*
X108736476Y-327643390D02*
X108641238Y-327595771D01*
X108641238Y-327595771D02*
X108450762Y-327595771D01*
X108450762Y-327595771D02*
X108355524Y-327643390D01*
X108355524Y-327643390D02*
X108307905Y-327691009D01*
X108307905Y-327691009D02*
X108260286Y-327786247D01*
X108784095Y-324674819D02*
X108307905Y-324674819D01*
X108307905Y-324674819D02*
X108260286Y-325151009D01*
X108260286Y-325151009D02*
X108307905Y-325103390D01*
X108307905Y-325103390D02*
X108403143Y-325055771D01*
X108403143Y-325055771D02*
X108641238Y-325055771D01*
X108641238Y-325055771D02*
X108736476Y-325103390D01*
X108736476Y-325103390D02*
X108784095Y-325151009D01*
X108784095Y-325151009D02*
X108831714Y-325246247D01*
X108831714Y-325246247D02*
X108831714Y-325484342D01*
X108831714Y-325484342D02*
X108784095Y-325579580D01*
X108784095Y-325579580D02*
X108736476Y-325627200D01*
X108736476Y-325627200D02*
X108641238Y-325674819D01*
X108641238Y-325674819D02*
X108403143Y-325674819D01*
X108403143Y-325674819D02*
X108307905Y-325627200D01*
X108307905Y-325627200D02*
X108260286Y-325579580D01*
X108736476Y-322468152D02*
X108736476Y-323134819D01*
X108498381Y-322087200D02*
X108260286Y-322801485D01*
X108260286Y-322801485D02*
X108879333Y-322801485D01*
X108609523Y-343454819D02*
X108038095Y-343454819D01*
X108323809Y-343454819D02*
X108323809Y-342454819D01*
X108323809Y-342454819D02*
X108228571Y-342597676D01*
X108228571Y-342597676D02*
X108133333Y-342692914D01*
X108133333Y-342692914D02*
X108038095Y-342740533D01*
X108990476Y-342550057D02*
X109038095Y-342502438D01*
X109038095Y-342502438D02*
X109133333Y-342454819D01*
X109133333Y-342454819D02*
X109371428Y-342454819D01*
X109371428Y-342454819D02*
X109466666Y-342502438D01*
X109466666Y-342502438D02*
X109514285Y-342550057D01*
X109514285Y-342550057D02*
X109561904Y-342645295D01*
X109561904Y-342645295D02*
X109561904Y-342740533D01*
X109561904Y-342740533D02*
X109514285Y-342883390D01*
X109514285Y-342883390D02*
X108942857Y-343454819D01*
X108942857Y-343454819D02*
X109561904Y-343454819D01*
X108609523Y-338374819D02*
X108038095Y-338374819D01*
X108323809Y-338374819D02*
X108323809Y-337374819D01*
X108323809Y-337374819D02*
X108228571Y-337517676D01*
X108228571Y-337517676D02*
X108133333Y-337612914D01*
X108133333Y-337612914D02*
X108038095Y-337660533D01*
X109228571Y-337374819D02*
X109323809Y-337374819D01*
X109323809Y-337374819D02*
X109419047Y-337422438D01*
X109419047Y-337422438D02*
X109466666Y-337470057D01*
X109466666Y-337470057D02*
X109514285Y-337565295D01*
X109514285Y-337565295D02*
X109561904Y-337755771D01*
X109561904Y-337755771D02*
X109561904Y-337993866D01*
X109561904Y-337993866D02*
X109514285Y-338184342D01*
X109514285Y-338184342D02*
X109466666Y-338279580D01*
X109466666Y-338279580D02*
X109419047Y-338327200D01*
X109419047Y-338327200D02*
X109323809Y-338374819D01*
X109323809Y-338374819D02*
X109228571Y-338374819D01*
X109228571Y-338374819D02*
X109133333Y-338327200D01*
X109133333Y-338327200D02*
X109085714Y-338279580D01*
X109085714Y-338279580D02*
X109038095Y-338184342D01*
X109038095Y-338184342D02*
X108990476Y-337993866D01*
X108990476Y-337993866D02*
X108990476Y-337755771D01*
X108990476Y-337755771D02*
X109038095Y-337565295D01*
X109038095Y-337565295D02*
X109085714Y-337470057D01*
X109085714Y-337470057D02*
X109133333Y-337422438D01*
X109133333Y-337422438D02*
X109228571Y-337374819D01*
X108609523Y-340914819D02*
X108038095Y-340914819D01*
X108323809Y-340914819D02*
X108323809Y-339914819D01*
X108323809Y-339914819D02*
X108228571Y-340057676D01*
X108228571Y-340057676D02*
X108133333Y-340152914D01*
X108133333Y-340152914D02*
X108038095Y-340200533D01*
X109561904Y-340914819D02*
X108990476Y-340914819D01*
X109276190Y-340914819D02*
X109276190Y-339914819D01*
X109276190Y-339914819D02*
X109180952Y-340057676D01*
X109180952Y-340057676D02*
X109085714Y-340152914D01*
X109085714Y-340152914D02*
X108990476Y-340200533D01*
X108212667Y-319594819D02*
X108831714Y-319594819D01*
X108831714Y-319594819D02*
X108498381Y-319975771D01*
X108498381Y-319975771D02*
X108641238Y-319975771D01*
X108641238Y-319975771D02*
X108736476Y-320023390D01*
X108736476Y-320023390D02*
X108784095Y-320071009D01*
X108784095Y-320071009D02*
X108831714Y-320166247D01*
X108831714Y-320166247D02*
X108831714Y-320404342D01*
X108831714Y-320404342D02*
X108784095Y-320499580D01*
X108784095Y-320499580D02*
X108736476Y-320547200D01*
X108736476Y-320547200D02*
X108641238Y-320594819D01*
X108641238Y-320594819D02*
X108355524Y-320594819D01*
X108355524Y-320594819D02*
X108260286Y-320547200D01*
X108260286Y-320547200D02*
X108212667Y-320499580D01*
X108498381Y-311974819D02*
X108593619Y-311974819D01*
X108593619Y-311974819D02*
X108688857Y-312022438D01*
X108688857Y-312022438D02*
X108736476Y-312070057D01*
X108736476Y-312070057D02*
X108784095Y-312165295D01*
X108784095Y-312165295D02*
X108831714Y-312355771D01*
X108831714Y-312355771D02*
X108831714Y-312593866D01*
X108831714Y-312593866D02*
X108784095Y-312784342D01*
X108784095Y-312784342D02*
X108736476Y-312879580D01*
X108736476Y-312879580D02*
X108688857Y-312927200D01*
X108688857Y-312927200D02*
X108593619Y-312974819D01*
X108593619Y-312974819D02*
X108498381Y-312974819D01*
X108498381Y-312974819D02*
X108403143Y-312927200D01*
X108403143Y-312927200D02*
X108355524Y-312879580D01*
X108355524Y-312879580D02*
X108307905Y-312784342D01*
X108307905Y-312784342D02*
X108260286Y-312593866D01*
X108260286Y-312593866D02*
X108260286Y-312355771D01*
X108260286Y-312355771D02*
X108307905Y-312165295D01*
X108307905Y-312165295D02*
X108355524Y-312070057D01*
X108355524Y-312070057D02*
X108403143Y-312022438D01*
X108403143Y-312022438D02*
X108498381Y-311974819D01*
X108212667Y-329754819D02*
X108879333Y-329754819D01*
X108879333Y-329754819D02*
X108450762Y-330754819D01*
D10*
X107771429Y-348140133D02*
X108380953Y-348140133D01*
X108076191Y-348444895D02*
X108076191Y-347835371D01*
X109142857Y-347644895D02*
X108761905Y-347644895D01*
X108761905Y-347644895D02*
X108723809Y-348025847D01*
X108723809Y-348025847D02*
X108761905Y-347987752D01*
X108761905Y-347987752D02*
X108838095Y-347949657D01*
X108838095Y-347949657D02*
X109028571Y-347949657D01*
X109028571Y-347949657D02*
X109104762Y-347987752D01*
X109104762Y-347987752D02*
X109142857Y-348025847D01*
X109142857Y-348025847D02*
X109180952Y-348102038D01*
X109180952Y-348102038D02*
X109180952Y-348292514D01*
X109180952Y-348292514D02*
X109142857Y-348368704D01*
X109142857Y-348368704D02*
X109104762Y-348406800D01*
X109104762Y-348406800D02*
X109028571Y-348444895D01*
X109028571Y-348444895D02*
X108838095Y-348444895D01*
X108838095Y-348444895D02*
X108761905Y-348406800D01*
X108761905Y-348406800D02*
X108723809Y-348368704D01*
X109409524Y-347644895D02*
X109676191Y-348444895D01*
X109676191Y-348444895D02*
X109942857Y-347644895D01*
X108444476Y-350222990D02*
X108368286Y-350184895D01*
X108368286Y-350184895D02*
X108254000Y-350184895D01*
X108254000Y-350184895D02*
X108139714Y-350222990D01*
X108139714Y-350222990D02*
X108063524Y-350299180D01*
X108063524Y-350299180D02*
X108025429Y-350375371D01*
X108025429Y-350375371D02*
X107987333Y-350527752D01*
X107987333Y-350527752D02*
X107987333Y-350642038D01*
X107987333Y-350642038D02*
X108025429Y-350794419D01*
X108025429Y-350794419D02*
X108063524Y-350870609D01*
X108063524Y-350870609D02*
X108139714Y-350946800D01*
X108139714Y-350946800D02*
X108254000Y-350984895D01*
X108254000Y-350984895D02*
X108330191Y-350984895D01*
X108330191Y-350984895D02*
X108444476Y-350946800D01*
X108444476Y-350946800D02*
X108482572Y-350908704D01*
X108482572Y-350908704D02*
X108482572Y-350642038D01*
X108482572Y-350642038D02*
X108330191Y-350642038D01*
X108825429Y-350984895D02*
X108825429Y-350184895D01*
X108825429Y-350184895D02*
X109282572Y-350984895D01*
X109282572Y-350984895D02*
X109282572Y-350184895D01*
X109663524Y-350984895D02*
X109663524Y-350184895D01*
X109663524Y-350184895D02*
X109854000Y-350184895D01*
X109854000Y-350184895D02*
X109968286Y-350222990D01*
X109968286Y-350222990D02*
X110044476Y-350299180D01*
X110044476Y-350299180D02*
X110082571Y-350375371D01*
X110082571Y-350375371D02*
X110120667Y-350527752D01*
X110120667Y-350527752D02*
X110120667Y-350642038D01*
X110120667Y-350642038D02*
X110082571Y-350794419D01*
X110082571Y-350794419D02*
X110044476Y-350870609D01*
X110044476Y-350870609D02*
X109968286Y-350946800D01*
X109968286Y-350946800D02*
X109854000Y-350984895D01*
X109854000Y-350984895D02*
X109663524Y-350984895D01*
D11*
X108831714Y-315514819D02*
X108260286Y-315514819D01*
X108546000Y-315514819D02*
X108546000Y-314514819D01*
X108546000Y-314514819D02*
X108450762Y-314657676D01*
X108450762Y-314657676D02*
X108355524Y-314752914D01*
X108355524Y-314752914D02*
X108260286Y-314800533D01*
X108450762Y-332469390D02*
X108355524Y-332421771D01*
X108355524Y-332421771D02*
X108307905Y-332374152D01*
X108307905Y-332374152D02*
X108260286Y-332278914D01*
X108260286Y-332278914D02*
X108260286Y-332231295D01*
X108260286Y-332231295D02*
X108307905Y-332136057D01*
X108307905Y-332136057D02*
X108355524Y-332088438D01*
X108355524Y-332088438D02*
X108450762Y-332040819D01*
X108450762Y-332040819D02*
X108641238Y-332040819D01*
X108641238Y-332040819D02*
X108736476Y-332088438D01*
X108736476Y-332088438D02*
X108784095Y-332136057D01*
X108784095Y-332136057D02*
X108831714Y-332231295D01*
X108831714Y-332231295D02*
X108831714Y-332278914D01*
X108831714Y-332278914D02*
X108784095Y-332374152D01*
X108784095Y-332374152D02*
X108736476Y-332421771D01*
X108736476Y-332421771D02*
X108641238Y-332469390D01*
X108641238Y-332469390D02*
X108450762Y-332469390D01*
X108450762Y-332469390D02*
X108355524Y-332517009D01*
X108355524Y-332517009D02*
X108307905Y-332564628D01*
X108307905Y-332564628D02*
X108260286Y-332659866D01*
X108260286Y-332659866D02*
X108260286Y-332850342D01*
X108260286Y-332850342D02*
X108307905Y-332945580D01*
X108307905Y-332945580D02*
X108355524Y-332993200D01*
X108355524Y-332993200D02*
X108450762Y-333040819D01*
X108450762Y-333040819D02*
X108641238Y-333040819D01*
X108641238Y-333040819D02*
X108736476Y-332993200D01*
X108736476Y-332993200D02*
X108784095Y-332945580D01*
X108784095Y-332945580D02*
X108831714Y-332850342D01*
X108831714Y-332850342D02*
X108831714Y-332659866D01*
X108831714Y-332659866D02*
X108784095Y-332564628D01*
X108784095Y-332564628D02*
X108736476Y-332517009D01*
X108736476Y-332517009D02*
X108641238Y-332469390D01*
X108609523Y-345994819D02*
X108038095Y-345994819D01*
X108323809Y-345994819D02*
X108323809Y-344994819D01*
X108323809Y-344994819D02*
X108228571Y-345137676D01*
X108228571Y-345137676D02*
X108133333Y-345232914D01*
X108133333Y-345232914D02*
X108038095Y-345280533D01*
X108942857Y-344994819D02*
X109561904Y-344994819D01*
X109561904Y-344994819D02*
X109228571Y-345375771D01*
X109228571Y-345375771D02*
X109371428Y-345375771D01*
X109371428Y-345375771D02*
X109466666Y-345423390D01*
X109466666Y-345423390D02*
X109514285Y-345471009D01*
X109514285Y-345471009D02*
X109561904Y-345566247D01*
X109561904Y-345566247D02*
X109561904Y-345804342D01*
X109561904Y-345804342D02*
X109514285Y-345899580D01*
X109514285Y-345899580D02*
X109466666Y-345947200D01*
X109466666Y-345947200D02*
X109371428Y-345994819D01*
X109371428Y-345994819D02*
X109085714Y-345994819D01*
X109085714Y-345994819D02*
X108990476Y-345947200D01*
X108990476Y-345947200D02*
X108942857Y-345899580D01*
X108355524Y-335834819D02*
X108546000Y-335834819D01*
X108546000Y-335834819D02*
X108641238Y-335787200D01*
X108641238Y-335787200D02*
X108688857Y-335739580D01*
X108688857Y-335739580D02*
X108784095Y-335596723D01*
X108784095Y-335596723D02*
X108831714Y-335406247D01*
X108831714Y-335406247D02*
X108831714Y-335025295D01*
X108831714Y-335025295D02*
X108784095Y-334930057D01*
X108784095Y-334930057D02*
X108736476Y-334882438D01*
X108736476Y-334882438D02*
X108641238Y-334834819D01*
X108641238Y-334834819D02*
X108450762Y-334834819D01*
X108450762Y-334834819D02*
X108355524Y-334882438D01*
X108355524Y-334882438D02*
X108307905Y-334930057D01*
X108307905Y-334930057D02*
X108260286Y-335025295D01*
X108260286Y-335025295D02*
X108260286Y-335263390D01*
X108260286Y-335263390D02*
X108307905Y-335358628D01*
X108307905Y-335358628D02*
X108355524Y-335406247D01*
X108355524Y-335406247D02*
X108450762Y-335453866D01*
X108450762Y-335453866D02*
X108641238Y-335453866D01*
X108641238Y-335453866D02*
X108736476Y-335406247D01*
X108736476Y-335406247D02*
X108784095Y-335358628D01*
X108784095Y-335358628D02*
X108831714Y-335263390D01*
X138692095Y-328083104D02*
X139168285Y-328083104D01*
X138596857Y-328368819D02*
X138930190Y-327368819D01*
X138930190Y-327368819D02*
X139263523Y-328368819D01*
X139596857Y-328368819D02*
X139596857Y-327702152D01*
X139596857Y-327892628D02*
X139644476Y-327797390D01*
X139644476Y-327797390D02*
X139692095Y-327749771D01*
X139692095Y-327749771D02*
X139787333Y-327702152D01*
X139787333Y-327702152D02*
X139882571Y-327702152D01*
X140596857Y-328321200D02*
X140501619Y-328368819D01*
X140501619Y-328368819D02*
X140311143Y-328368819D01*
X140311143Y-328368819D02*
X140215905Y-328321200D01*
X140215905Y-328321200D02*
X140168286Y-328225961D01*
X140168286Y-328225961D02*
X140168286Y-327845009D01*
X140168286Y-327845009D02*
X140215905Y-327749771D01*
X140215905Y-327749771D02*
X140311143Y-327702152D01*
X140311143Y-327702152D02*
X140501619Y-327702152D01*
X140501619Y-327702152D02*
X140596857Y-327749771D01*
X140596857Y-327749771D02*
X140644476Y-327845009D01*
X140644476Y-327845009D02*
X140644476Y-327940247D01*
X140644476Y-327940247D02*
X140168286Y-328035485D01*
X140930191Y-327702152D02*
X141311143Y-327702152D01*
X141073048Y-328368819D02*
X141073048Y-327511676D01*
X141073048Y-327511676D02*
X141120667Y-327416438D01*
X141120667Y-327416438D02*
X141215905Y-327368819D01*
X141215905Y-327368819D02*
X141311143Y-327368819D01*
X118935523Y-343354819D02*
X118364095Y-343354819D01*
X118649809Y-343354819D02*
X118649809Y-342354819D01*
X118649809Y-342354819D02*
X118554571Y-342497676D01*
X118554571Y-342497676D02*
X118459333Y-342592914D01*
X118459333Y-342592914D02*
X118364095Y-342640533D01*
X119316476Y-342450057D02*
X119364095Y-342402438D01*
X119364095Y-342402438D02*
X119459333Y-342354819D01*
X119459333Y-342354819D02*
X119697428Y-342354819D01*
X119697428Y-342354819D02*
X119792666Y-342402438D01*
X119792666Y-342402438D02*
X119840285Y-342450057D01*
X119840285Y-342450057D02*
X119887904Y-342545295D01*
X119887904Y-342545295D02*
X119887904Y-342640533D01*
X119887904Y-342640533D02*
X119840285Y-342783390D01*
X119840285Y-342783390D02*
X119268857Y-343354819D01*
X119268857Y-343354819D02*
X119887904Y-343354819D01*
X140200095Y-320748819D02*
X140723904Y-320082152D01*
X140200095Y-320082152D02*
X140723904Y-320748819D01*
X119062476Y-322368152D02*
X119062476Y-323034819D01*
X118824381Y-321987200D02*
X118586286Y-322701485D01*
X118586286Y-322701485D02*
X119205333Y-322701485D01*
X119062476Y-327114819D02*
X118872000Y-327114819D01*
X118872000Y-327114819D02*
X118776762Y-327162438D01*
X118776762Y-327162438D02*
X118729143Y-327210057D01*
X118729143Y-327210057D02*
X118633905Y-327352914D01*
X118633905Y-327352914D02*
X118586286Y-327543390D01*
X118586286Y-327543390D02*
X118586286Y-327924342D01*
X118586286Y-327924342D02*
X118633905Y-328019580D01*
X118633905Y-328019580D02*
X118681524Y-328067200D01*
X118681524Y-328067200D02*
X118776762Y-328114819D01*
X118776762Y-328114819D02*
X118967238Y-328114819D01*
X118967238Y-328114819D02*
X119062476Y-328067200D01*
X119062476Y-328067200D02*
X119110095Y-328019580D01*
X119110095Y-328019580D02*
X119157714Y-327924342D01*
X119157714Y-327924342D02*
X119157714Y-327686247D01*
X119157714Y-327686247D02*
X119110095Y-327591009D01*
X119110095Y-327591009D02*
X119062476Y-327543390D01*
X119062476Y-327543390D02*
X118967238Y-327495771D01*
X118967238Y-327495771D02*
X118776762Y-327495771D01*
X118776762Y-327495771D02*
X118681524Y-327543390D01*
X118681524Y-327543390D02*
X118633905Y-327591009D01*
X118633905Y-327591009D02*
X118586286Y-327686247D01*
X118586286Y-317050057D02*
X118633905Y-317002438D01*
X118633905Y-317002438D02*
X118729143Y-316954819D01*
X118729143Y-316954819D02*
X118967238Y-316954819D01*
X118967238Y-316954819D02*
X119062476Y-317002438D01*
X119062476Y-317002438D02*
X119110095Y-317050057D01*
X119110095Y-317050057D02*
X119157714Y-317145295D01*
X119157714Y-317145295D02*
X119157714Y-317240533D01*
X119157714Y-317240533D02*
X119110095Y-317383390D01*
X119110095Y-317383390D02*
X118538667Y-317954819D01*
X118538667Y-317954819D02*
X119157714Y-317954819D01*
X119110095Y-324574819D02*
X118633905Y-324574819D01*
X118633905Y-324574819D02*
X118586286Y-325051009D01*
X118586286Y-325051009D02*
X118633905Y-325003390D01*
X118633905Y-325003390D02*
X118729143Y-324955771D01*
X118729143Y-324955771D02*
X118967238Y-324955771D01*
X118967238Y-324955771D02*
X119062476Y-325003390D01*
X119062476Y-325003390D02*
X119110095Y-325051009D01*
X119110095Y-325051009D02*
X119157714Y-325146247D01*
X119157714Y-325146247D02*
X119157714Y-325384342D01*
X119157714Y-325384342D02*
X119110095Y-325479580D01*
X119110095Y-325479580D02*
X119062476Y-325527200D01*
X119062476Y-325527200D02*
X118967238Y-325574819D01*
X118967238Y-325574819D02*
X118729143Y-325574819D01*
X118729143Y-325574819D02*
X118633905Y-325527200D01*
X118633905Y-325527200D02*
X118586286Y-325479580D01*
X115522476Y-358356819D02*
X115046286Y-358356819D01*
X115046286Y-358356819D02*
X114998667Y-358833009D01*
X114998667Y-358833009D02*
X115046286Y-358785390D01*
X115046286Y-358785390D02*
X115141524Y-358737771D01*
X115141524Y-358737771D02*
X115379619Y-358737771D01*
X115379619Y-358737771D02*
X115474857Y-358785390D01*
X115474857Y-358785390D02*
X115522476Y-358833009D01*
X115522476Y-358833009D02*
X115570095Y-358928247D01*
X115570095Y-358928247D02*
X115570095Y-359166342D01*
X115570095Y-359166342D02*
X115522476Y-359261580D01*
X115522476Y-359261580D02*
X115474857Y-359309200D01*
X115474857Y-359309200D02*
X115379619Y-359356819D01*
X115379619Y-359356819D02*
X115141524Y-359356819D01*
X115141524Y-359356819D02*
X115046286Y-359309200D01*
X115046286Y-359309200D02*
X114998667Y-359261580D01*
X115855810Y-358356819D02*
X116189143Y-359356819D01*
X116189143Y-359356819D02*
X116522476Y-358356819D01*
X116855810Y-358975866D02*
X117617715Y-358975866D01*
X117236762Y-359356819D02*
X117236762Y-358594914D01*
X140200095Y-318208819D02*
X140723904Y-317542152D01*
X140200095Y-317542152D02*
X140723904Y-318208819D01*
X140176286Y-342704057D02*
X140223905Y-342656438D01*
X140223905Y-342656438D02*
X140319143Y-342608819D01*
X140319143Y-342608819D02*
X140557238Y-342608819D01*
X140557238Y-342608819D02*
X140652476Y-342656438D01*
X140652476Y-342656438D02*
X140700095Y-342704057D01*
X140700095Y-342704057D02*
X140747714Y-342799295D01*
X140747714Y-342799295D02*
X140747714Y-342894533D01*
X140747714Y-342894533D02*
X140700095Y-343037390D01*
X140700095Y-343037390D02*
X140128667Y-343608819D01*
X140128667Y-343608819D02*
X140747714Y-343608819D01*
X140128667Y-329908819D02*
X140795333Y-329908819D01*
X140795333Y-329908819D02*
X140366762Y-330908819D01*
X118935523Y-345894819D02*
X118364095Y-345894819D01*
X118649809Y-345894819D02*
X118649809Y-344894819D01*
X118649809Y-344894819D02*
X118554571Y-345037676D01*
X118554571Y-345037676D02*
X118459333Y-345132914D01*
X118459333Y-345132914D02*
X118364095Y-345180533D01*
X119268857Y-344894819D02*
X119887904Y-344894819D01*
X119887904Y-344894819D02*
X119554571Y-345275771D01*
X119554571Y-345275771D02*
X119697428Y-345275771D01*
X119697428Y-345275771D02*
X119792666Y-345323390D01*
X119792666Y-345323390D02*
X119840285Y-345371009D01*
X119840285Y-345371009D02*
X119887904Y-345466247D01*
X119887904Y-345466247D02*
X119887904Y-345704342D01*
X119887904Y-345704342D02*
X119840285Y-345799580D01*
X119840285Y-345799580D02*
X119792666Y-345847200D01*
X119792666Y-345847200D02*
X119697428Y-345894819D01*
X119697428Y-345894819D02*
X119411714Y-345894819D01*
X119411714Y-345894819D02*
X119316476Y-345847200D01*
X119316476Y-345847200D02*
X119268857Y-345799580D01*
X145581714Y-358579009D02*
X145915047Y-358579009D01*
X146057904Y-359102819D02*
X145581714Y-359102819D01*
X145581714Y-359102819D02*
X145581714Y-358102819D01*
X145581714Y-358102819D02*
X146057904Y-358102819D01*
X124762095Y-362404819D02*
X124762095Y-361404819D01*
X124762095Y-361404819D02*
X125333523Y-362404819D01*
X125333523Y-362404819D02*
X125333523Y-361404819D01*
X125762095Y-362119104D02*
X126238285Y-362119104D01*
X125666857Y-362404819D02*
X126000190Y-361404819D01*
X126000190Y-361404819D02*
X126333523Y-362404819D01*
X126666857Y-362404819D02*
X126666857Y-361404819D01*
X126666857Y-361404819D02*
X127238285Y-362404819D01*
X127238285Y-362404819D02*
X127238285Y-361404819D01*
X127904952Y-361404819D02*
X128095428Y-361404819D01*
X128095428Y-361404819D02*
X128190666Y-361452438D01*
X128190666Y-361452438D02*
X128285904Y-361547676D01*
X128285904Y-361547676D02*
X128333523Y-361738152D01*
X128333523Y-361738152D02*
X128333523Y-362071485D01*
X128333523Y-362071485D02*
X128285904Y-362261961D01*
X128285904Y-362261961D02*
X128190666Y-362357200D01*
X128190666Y-362357200D02*
X128095428Y-362404819D01*
X128095428Y-362404819D02*
X127904952Y-362404819D01*
X127904952Y-362404819D02*
X127809714Y-362357200D01*
X127809714Y-362357200D02*
X127714476Y-362261961D01*
X127714476Y-362261961D02*
X127666857Y-362071485D01*
X127666857Y-362071485D02*
X127666857Y-361738152D01*
X127666857Y-361738152D02*
X127714476Y-361547676D01*
X127714476Y-361547676D02*
X127809714Y-361452438D01*
X127809714Y-361452438D02*
X127904952Y-361404819D01*
X129381143Y-361404819D02*
X129714476Y-362404819D01*
X129714476Y-362404819D02*
X130047809Y-361404819D01*
X130285905Y-361404819D02*
X130904952Y-361404819D01*
X130904952Y-361404819D02*
X130571619Y-361785771D01*
X130571619Y-361785771D02*
X130714476Y-361785771D01*
X130714476Y-361785771D02*
X130809714Y-361833390D01*
X130809714Y-361833390D02*
X130857333Y-361881009D01*
X130857333Y-361881009D02*
X130904952Y-361976247D01*
X130904952Y-361976247D02*
X130904952Y-362214342D01*
X130904952Y-362214342D02*
X130857333Y-362309580D01*
X130857333Y-362309580D02*
X130809714Y-362357200D01*
X130809714Y-362357200D02*
X130714476Y-362404819D01*
X130714476Y-362404819D02*
X130428762Y-362404819D01*
X130428762Y-362404819D02*
X130333524Y-362357200D01*
X130333524Y-362357200D02*
X130285905Y-362309580D01*
X131333524Y-362309580D02*
X131381143Y-362357200D01*
X131381143Y-362357200D02*
X131333524Y-362404819D01*
X131333524Y-362404819D02*
X131285905Y-362357200D01*
X131285905Y-362357200D02*
X131333524Y-362309580D01*
X131333524Y-362309580D02*
X131333524Y-362404819D01*
X132333523Y-362404819D02*
X131762095Y-362404819D01*
X132047809Y-362404819D02*
X132047809Y-361404819D01*
X132047809Y-361404819D02*
X131952571Y-361547676D01*
X131952571Y-361547676D02*
X131857333Y-361642914D01*
X131857333Y-361642914D02*
X131762095Y-361690533D01*
X140652476Y-332702819D02*
X140462000Y-332702819D01*
X140462000Y-332702819D02*
X140366762Y-332750438D01*
X140366762Y-332750438D02*
X140319143Y-332798057D01*
X140319143Y-332798057D02*
X140223905Y-332940914D01*
X140223905Y-332940914D02*
X140176286Y-333131390D01*
X140176286Y-333131390D02*
X140176286Y-333512342D01*
X140176286Y-333512342D02*
X140223905Y-333607580D01*
X140223905Y-333607580D02*
X140271524Y-333655200D01*
X140271524Y-333655200D02*
X140366762Y-333702819D01*
X140366762Y-333702819D02*
X140557238Y-333702819D01*
X140557238Y-333702819D02*
X140652476Y-333655200D01*
X140652476Y-333655200D02*
X140700095Y-333607580D01*
X140700095Y-333607580D02*
X140747714Y-333512342D01*
X140747714Y-333512342D02*
X140747714Y-333274247D01*
X140747714Y-333274247D02*
X140700095Y-333179009D01*
X140700095Y-333179009D02*
X140652476Y-333131390D01*
X140652476Y-333131390D02*
X140557238Y-333083771D01*
X140557238Y-333083771D02*
X140366762Y-333083771D01*
X140366762Y-333083771D02*
X140271524Y-333131390D01*
X140271524Y-333131390D02*
X140223905Y-333179009D01*
X140223905Y-333179009D02*
X140176286Y-333274247D01*
X118776762Y-332369390D02*
X118681524Y-332321771D01*
X118681524Y-332321771D02*
X118633905Y-332274152D01*
X118633905Y-332274152D02*
X118586286Y-332178914D01*
X118586286Y-332178914D02*
X118586286Y-332131295D01*
X118586286Y-332131295D02*
X118633905Y-332036057D01*
X118633905Y-332036057D02*
X118681524Y-331988438D01*
X118681524Y-331988438D02*
X118776762Y-331940819D01*
X118776762Y-331940819D02*
X118967238Y-331940819D01*
X118967238Y-331940819D02*
X119062476Y-331988438D01*
X119062476Y-331988438D02*
X119110095Y-332036057D01*
X119110095Y-332036057D02*
X119157714Y-332131295D01*
X119157714Y-332131295D02*
X119157714Y-332178914D01*
X119157714Y-332178914D02*
X119110095Y-332274152D01*
X119110095Y-332274152D02*
X119062476Y-332321771D01*
X119062476Y-332321771D02*
X118967238Y-332369390D01*
X118967238Y-332369390D02*
X118776762Y-332369390D01*
X118776762Y-332369390D02*
X118681524Y-332417009D01*
X118681524Y-332417009D02*
X118633905Y-332464628D01*
X118633905Y-332464628D02*
X118586286Y-332559866D01*
X118586286Y-332559866D02*
X118586286Y-332750342D01*
X118586286Y-332750342D02*
X118633905Y-332845580D01*
X118633905Y-332845580D02*
X118681524Y-332893200D01*
X118681524Y-332893200D02*
X118776762Y-332940819D01*
X118776762Y-332940819D02*
X118967238Y-332940819D01*
X118967238Y-332940819D02*
X119062476Y-332893200D01*
X119062476Y-332893200D02*
X119110095Y-332845580D01*
X119110095Y-332845580D02*
X119157714Y-332750342D01*
X119157714Y-332750342D02*
X119157714Y-332559866D01*
X119157714Y-332559866D02*
X119110095Y-332464628D01*
X119110095Y-332464628D02*
X119062476Y-332417009D01*
X119062476Y-332417009D02*
X118967238Y-332369390D01*
X140700095Y-334988819D02*
X140223905Y-334988819D01*
X140223905Y-334988819D02*
X140176286Y-335465009D01*
X140176286Y-335465009D02*
X140223905Y-335417390D01*
X140223905Y-335417390D02*
X140319143Y-335369771D01*
X140319143Y-335369771D02*
X140557238Y-335369771D01*
X140557238Y-335369771D02*
X140652476Y-335417390D01*
X140652476Y-335417390D02*
X140700095Y-335465009D01*
X140700095Y-335465009D02*
X140747714Y-335560247D01*
X140747714Y-335560247D02*
X140747714Y-335798342D01*
X140747714Y-335798342D02*
X140700095Y-335893580D01*
X140700095Y-335893580D02*
X140652476Y-335941200D01*
X140652476Y-335941200D02*
X140557238Y-335988819D01*
X140557238Y-335988819D02*
X140319143Y-335988819D01*
X140319143Y-335988819D02*
X140223905Y-335941200D01*
X140223905Y-335941200D02*
X140176286Y-335893580D01*
X145534095Y-354022819D02*
X146057904Y-353356152D01*
X145534095Y-353356152D02*
X146057904Y-354022819D01*
X138668286Y-310207866D02*
X139430191Y-310207866D01*
X139049238Y-310588819D02*
X139049238Y-309826914D01*
X140382571Y-309588819D02*
X139906381Y-309588819D01*
X139906381Y-309588819D02*
X139858762Y-310065009D01*
X139858762Y-310065009D02*
X139906381Y-310017390D01*
X139906381Y-310017390D02*
X140001619Y-309969771D01*
X140001619Y-309969771D02*
X140239714Y-309969771D01*
X140239714Y-309969771D02*
X140334952Y-310017390D01*
X140334952Y-310017390D02*
X140382571Y-310065009D01*
X140382571Y-310065009D02*
X140430190Y-310160247D01*
X140430190Y-310160247D02*
X140430190Y-310398342D01*
X140430190Y-310398342D02*
X140382571Y-310493580D01*
X140382571Y-310493580D02*
X140334952Y-310541200D01*
X140334952Y-310541200D02*
X140239714Y-310588819D01*
X140239714Y-310588819D02*
X140001619Y-310588819D01*
X140001619Y-310588819D02*
X139906381Y-310541200D01*
X139906381Y-310541200D02*
X139858762Y-310493580D01*
X140715905Y-309588819D02*
X141049238Y-310588819D01*
X141049238Y-310588819D02*
X141382571Y-309588819D01*
X119157714Y-315414819D02*
X118586286Y-315414819D01*
X118872000Y-315414819D02*
X118872000Y-314414819D01*
X118872000Y-314414819D02*
X118776762Y-314557676D01*
X118776762Y-314557676D02*
X118681524Y-314652914D01*
X118681524Y-314652914D02*
X118586286Y-314700533D01*
X138731810Y-312128819D02*
X139350857Y-312128819D01*
X139350857Y-312128819D02*
X139017524Y-312509771D01*
X139017524Y-312509771D02*
X139160381Y-312509771D01*
X139160381Y-312509771D02*
X139255619Y-312557390D01*
X139255619Y-312557390D02*
X139303238Y-312605009D01*
X139303238Y-312605009D02*
X139350857Y-312700247D01*
X139350857Y-312700247D02*
X139350857Y-312938342D01*
X139350857Y-312938342D02*
X139303238Y-313033580D01*
X139303238Y-313033580D02*
X139255619Y-313081200D01*
X139255619Y-313081200D02*
X139160381Y-313128819D01*
X139160381Y-313128819D02*
X138874667Y-313128819D01*
X138874667Y-313128819D02*
X138779429Y-313081200D01*
X138779429Y-313081200D02*
X138731810Y-313033580D01*
X139827048Y-313081200D02*
X139827048Y-313128819D01*
X139827048Y-313128819D02*
X139779429Y-313224057D01*
X139779429Y-313224057D02*
X139731810Y-313271676D01*
X140160381Y-312128819D02*
X140779428Y-312128819D01*
X140779428Y-312128819D02*
X140446095Y-312509771D01*
X140446095Y-312509771D02*
X140588952Y-312509771D01*
X140588952Y-312509771D02*
X140684190Y-312557390D01*
X140684190Y-312557390D02*
X140731809Y-312605009D01*
X140731809Y-312605009D02*
X140779428Y-312700247D01*
X140779428Y-312700247D02*
X140779428Y-312938342D01*
X140779428Y-312938342D02*
X140731809Y-313033580D01*
X140731809Y-313033580D02*
X140684190Y-313081200D01*
X140684190Y-313081200D02*
X140588952Y-313128819D01*
X140588952Y-313128819D02*
X140303238Y-313128819D01*
X140303238Y-313128819D02*
X140208000Y-313081200D01*
X140208000Y-313081200D02*
X140160381Y-313033580D01*
X141065143Y-312128819D02*
X141398476Y-313128819D01*
X141398476Y-313128819D02*
X141731809Y-312128819D01*
X139684190Y-325574819D02*
X139350857Y-325098628D01*
X139112762Y-325574819D02*
X139112762Y-324574819D01*
X139112762Y-324574819D02*
X139493714Y-324574819D01*
X139493714Y-324574819D02*
X139588952Y-324622438D01*
X139588952Y-324622438D02*
X139636571Y-324670057D01*
X139636571Y-324670057D02*
X139684190Y-324765295D01*
X139684190Y-324765295D02*
X139684190Y-324908152D01*
X139684190Y-324908152D02*
X139636571Y-325003390D01*
X139636571Y-325003390D02*
X139588952Y-325051009D01*
X139588952Y-325051009D02*
X139493714Y-325098628D01*
X139493714Y-325098628D02*
X139112762Y-325098628D01*
X140493714Y-325527200D02*
X140398476Y-325574819D01*
X140398476Y-325574819D02*
X140208000Y-325574819D01*
X140208000Y-325574819D02*
X140112762Y-325527200D01*
X140112762Y-325527200D02*
X140065143Y-325431961D01*
X140065143Y-325431961D02*
X140065143Y-325051009D01*
X140065143Y-325051009D02*
X140112762Y-324955771D01*
X140112762Y-324955771D02*
X140208000Y-324908152D01*
X140208000Y-324908152D02*
X140398476Y-324908152D01*
X140398476Y-324908152D02*
X140493714Y-324955771D01*
X140493714Y-324955771D02*
X140541333Y-325051009D01*
X140541333Y-325051009D02*
X140541333Y-325146247D01*
X140541333Y-325146247D02*
X140065143Y-325241485D01*
X140922286Y-325527200D02*
X141017524Y-325574819D01*
X141017524Y-325574819D02*
X141208000Y-325574819D01*
X141208000Y-325574819D02*
X141303238Y-325527200D01*
X141303238Y-325527200D02*
X141350857Y-325431961D01*
X141350857Y-325431961D02*
X141350857Y-325384342D01*
X141350857Y-325384342D02*
X141303238Y-325289104D01*
X141303238Y-325289104D02*
X141208000Y-325241485D01*
X141208000Y-325241485D02*
X141065143Y-325241485D01*
X141065143Y-325241485D02*
X140969905Y-325193866D01*
X140969905Y-325193866D02*
X140922286Y-325098628D01*
X140922286Y-325098628D02*
X140922286Y-325051009D01*
X140922286Y-325051009D02*
X140969905Y-324955771D01*
X140969905Y-324955771D02*
X141065143Y-324908152D01*
X141065143Y-324908152D02*
X141208000Y-324908152D01*
X141208000Y-324908152D02*
X141303238Y-324955771D01*
X118538667Y-329654819D02*
X119205333Y-329654819D01*
X119205333Y-329654819D02*
X118776762Y-330654819D01*
X118681524Y-335734819D02*
X118872000Y-335734819D01*
X118872000Y-335734819D02*
X118967238Y-335687200D01*
X118967238Y-335687200D02*
X119014857Y-335639580D01*
X119014857Y-335639580D02*
X119110095Y-335496723D01*
X119110095Y-335496723D02*
X119157714Y-335306247D01*
X119157714Y-335306247D02*
X119157714Y-334925295D01*
X119157714Y-334925295D02*
X119110095Y-334830057D01*
X119110095Y-334830057D02*
X119062476Y-334782438D01*
X119062476Y-334782438D02*
X118967238Y-334734819D01*
X118967238Y-334734819D02*
X118776762Y-334734819D01*
X118776762Y-334734819D02*
X118681524Y-334782438D01*
X118681524Y-334782438D02*
X118633905Y-334830057D01*
X118633905Y-334830057D02*
X118586286Y-334925295D01*
X118586286Y-334925295D02*
X118586286Y-335163390D01*
X118586286Y-335163390D02*
X118633905Y-335258628D01*
X118633905Y-335258628D02*
X118681524Y-335306247D01*
X118681524Y-335306247D02*
X118776762Y-335353866D01*
X118776762Y-335353866D02*
X118967238Y-335353866D01*
X118967238Y-335353866D02*
X119062476Y-335306247D01*
X119062476Y-335306247D02*
X119110095Y-335258628D01*
X119110095Y-335258628D02*
X119157714Y-335163390D01*
X139184191Y-314668819D02*
X139517524Y-315668819D01*
X139517524Y-315668819D02*
X139850857Y-314668819D01*
X140184191Y-315668819D02*
X140184191Y-315002152D01*
X140184191Y-314668819D02*
X140136572Y-314716438D01*
X140136572Y-314716438D02*
X140184191Y-314764057D01*
X140184191Y-314764057D02*
X140231810Y-314716438D01*
X140231810Y-314716438D02*
X140184191Y-314668819D01*
X140184191Y-314668819D02*
X140184191Y-314764057D01*
X140660381Y-315002152D02*
X140660381Y-315668819D01*
X140660381Y-315097390D02*
X140708000Y-315049771D01*
X140708000Y-315049771D02*
X140803238Y-315002152D01*
X140803238Y-315002152D02*
X140946095Y-315002152D01*
X140946095Y-315002152D02*
X141041333Y-315049771D01*
X141041333Y-315049771D02*
X141088952Y-315145009D01*
X141088952Y-315145009D02*
X141088952Y-315668819D01*
X145557905Y-356277104D02*
X146034095Y-356277104D01*
X145462667Y-356562819D02*
X145796000Y-355562819D01*
X145796000Y-355562819D02*
X146129333Y-356562819D01*
X118935523Y-338274819D02*
X118364095Y-338274819D01*
X118649809Y-338274819D02*
X118649809Y-337274819D01*
X118649809Y-337274819D02*
X118554571Y-337417676D01*
X118554571Y-337417676D02*
X118459333Y-337512914D01*
X118459333Y-337512914D02*
X118364095Y-337560533D01*
X119554571Y-337274819D02*
X119649809Y-337274819D01*
X119649809Y-337274819D02*
X119745047Y-337322438D01*
X119745047Y-337322438D02*
X119792666Y-337370057D01*
X119792666Y-337370057D02*
X119840285Y-337465295D01*
X119840285Y-337465295D02*
X119887904Y-337655771D01*
X119887904Y-337655771D02*
X119887904Y-337893866D01*
X119887904Y-337893866D02*
X119840285Y-338084342D01*
X119840285Y-338084342D02*
X119792666Y-338179580D01*
X119792666Y-338179580D02*
X119745047Y-338227200D01*
X119745047Y-338227200D02*
X119649809Y-338274819D01*
X119649809Y-338274819D02*
X119554571Y-338274819D01*
X119554571Y-338274819D02*
X119459333Y-338227200D01*
X119459333Y-338227200D02*
X119411714Y-338179580D01*
X119411714Y-338179580D02*
X119364095Y-338084342D01*
X119364095Y-338084342D02*
X119316476Y-337893866D01*
X119316476Y-337893866D02*
X119316476Y-337655771D01*
X119316476Y-337655771D02*
X119364095Y-337465295D01*
X119364095Y-337465295D02*
X119411714Y-337370057D01*
X119411714Y-337370057D02*
X119459333Y-337322438D01*
X119459333Y-337322438D02*
X119554571Y-337274819D01*
X118824381Y-311874819D02*
X118919619Y-311874819D01*
X118919619Y-311874819D02*
X119014857Y-311922438D01*
X119014857Y-311922438D02*
X119062476Y-311970057D01*
X119062476Y-311970057D02*
X119110095Y-312065295D01*
X119110095Y-312065295D02*
X119157714Y-312255771D01*
X119157714Y-312255771D02*
X119157714Y-312493866D01*
X119157714Y-312493866D02*
X119110095Y-312684342D01*
X119110095Y-312684342D02*
X119062476Y-312779580D01*
X119062476Y-312779580D02*
X119014857Y-312827200D01*
X119014857Y-312827200D02*
X118919619Y-312874819D01*
X118919619Y-312874819D02*
X118824381Y-312874819D01*
X118824381Y-312874819D02*
X118729143Y-312827200D01*
X118729143Y-312827200D02*
X118681524Y-312779580D01*
X118681524Y-312779580D02*
X118633905Y-312684342D01*
X118633905Y-312684342D02*
X118586286Y-312493866D01*
X118586286Y-312493866D02*
X118586286Y-312255771D01*
X118586286Y-312255771D02*
X118633905Y-312065295D01*
X118633905Y-312065295D02*
X118681524Y-311970057D01*
X118681524Y-311970057D02*
X118729143Y-311922438D01*
X118729143Y-311922438D02*
X118824381Y-311874819D01*
X140747714Y-346148819D02*
X140176286Y-346148819D01*
X140462000Y-346148819D02*
X140462000Y-345148819D01*
X140462000Y-345148819D02*
X140366762Y-345291676D01*
X140366762Y-345291676D02*
X140271524Y-345386914D01*
X140271524Y-345386914D02*
X140176286Y-345434533D01*
X140128667Y-340068819D02*
X140747714Y-340068819D01*
X140747714Y-340068819D02*
X140414381Y-340449771D01*
X140414381Y-340449771D02*
X140557238Y-340449771D01*
X140557238Y-340449771D02*
X140652476Y-340497390D01*
X140652476Y-340497390D02*
X140700095Y-340545009D01*
X140700095Y-340545009D02*
X140747714Y-340640247D01*
X140747714Y-340640247D02*
X140747714Y-340878342D01*
X140747714Y-340878342D02*
X140700095Y-340973580D01*
X140700095Y-340973580D02*
X140652476Y-341021200D01*
X140652476Y-341021200D02*
X140557238Y-341068819D01*
X140557238Y-341068819D02*
X140271524Y-341068819D01*
X140271524Y-341068819D02*
X140176286Y-341021200D01*
X140176286Y-341021200D02*
X140128667Y-340973580D01*
X118935523Y-340814819D02*
X118364095Y-340814819D01*
X118649809Y-340814819D02*
X118649809Y-339814819D01*
X118649809Y-339814819D02*
X118554571Y-339957676D01*
X118554571Y-339957676D02*
X118459333Y-340052914D01*
X118459333Y-340052914D02*
X118364095Y-340100533D01*
X119887904Y-340814819D02*
X119316476Y-340814819D01*
X119602190Y-340814819D02*
X119602190Y-339814819D01*
X119602190Y-339814819D02*
X119506952Y-339957676D01*
X119506952Y-339957676D02*
X119411714Y-340052914D01*
X119411714Y-340052914D02*
X119316476Y-340100533D01*
X140414381Y-347688819D02*
X140509619Y-347688819D01*
X140509619Y-347688819D02*
X140604857Y-347736438D01*
X140604857Y-347736438D02*
X140652476Y-347784057D01*
X140652476Y-347784057D02*
X140700095Y-347879295D01*
X140700095Y-347879295D02*
X140747714Y-348069771D01*
X140747714Y-348069771D02*
X140747714Y-348307866D01*
X140747714Y-348307866D02*
X140700095Y-348498342D01*
X140700095Y-348498342D02*
X140652476Y-348593580D01*
X140652476Y-348593580D02*
X140604857Y-348641200D01*
X140604857Y-348641200D02*
X140509619Y-348688819D01*
X140509619Y-348688819D02*
X140414381Y-348688819D01*
X140414381Y-348688819D02*
X140319143Y-348641200D01*
X140319143Y-348641200D02*
X140271524Y-348593580D01*
X140271524Y-348593580D02*
X140223905Y-348498342D01*
X140223905Y-348498342D02*
X140176286Y-348307866D01*
X140176286Y-348307866D02*
X140176286Y-348069771D01*
X140176286Y-348069771D02*
X140223905Y-347879295D01*
X140223905Y-347879295D02*
X140271524Y-347784057D01*
X140271524Y-347784057D02*
X140319143Y-347736438D01*
X140319143Y-347736438D02*
X140414381Y-347688819D01*
X140652476Y-337862152D02*
X140652476Y-338528819D01*
X140414381Y-337481200D02*
X140176286Y-338195485D01*
X140176286Y-338195485D02*
X140795333Y-338195485D01*
X118538667Y-319494819D02*
X119157714Y-319494819D01*
X119157714Y-319494819D02*
X118824381Y-319875771D01*
X118824381Y-319875771D02*
X118967238Y-319875771D01*
X118967238Y-319875771D02*
X119062476Y-319923390D01*
X119062476Y-319923390D02*
X119110095Y-319971009D01*
X119110095Y-319971009D02*
X119157714Y-320066247D01*
X119157714Y-320066247D02*
X119157714Y-320304342D01*
X119157714Y-320304342D02*
X119110095Y-320399580D01*
X119110095Y-320399580D02*
X119062476Y-320447200D01*
X119062476Y-320447200D02*
X118967238Y-320494819D01*
X118967238Y-320494819D02*
X118681524Y-320494819D01*
X118681524Y-320494819D02*
X118586286Y-320447200D01*
X118586286Y-320447200D02*
X118538667Y-320399580D01*
X140200095Y-323288819D02*
X140723904Y-322622152D01*
X140200095Y-322622152D02*
X140723904Y-323288819D01*
X140428571Y-305507200D02*
X140571428Y-305554819D01*
X140571428Y-305554819D02*
X140809523Y-305554819D01*
X140809523Y-305554819D02*
X140904761Y-305507200D01*
X140904761Y-305507200D02*
X140952380Y-305459580D01*
X140952380Y-305459580D02*
X140999999Y-305364342D01*
X140999999Y-305364342D02*
X140999999Y-305269104D01*
X140999999Y-305269104D02*
X140952380Y-305173866D01*
X140952380Y-305173866D02*
X140904761Y-305126247D01*
X140904761Y-305126247D02*
X140809523Y-305078628D01*
X140809523Y-305078628D02*
X140619047Y-305031009D01*
X140619047Y-305031009D02*
X140523809Y-304983390D01*
X140523809Y-304983390D02*
X140476190Y-304935771D01*
X140476190Y-304935771D02*
X140428571Y-304840533D01*
X140428571Y-304840533D02*
X140428571Y-304745295D01*
X140428571Y-304745295D02*
X140476190Y-304650057D01*
X140476190Y-304650057D02*
X140523809Y-304602438D01*
X140523809Y-304602438D02*
X140619047Y-304554819D01*
X140619047Y-304554819D02*
X140857142Y-304554819D01*
X140857142Y-304554819D02*
X140999999Y-304602438D01*
X142238095Y-305554819D02*
X142428571Y-305554819D01*
X142428571Y-305554819D02*
X142523809Y-305507200D01*
X142523809Y-305507200D02*
X142571428Y-305459580D01*
X142571428Y-305459580D02*
X142666666Y-305316723D01*
X142666666Y-305316723D02*
X142714285Y-305126247D01*
X142714285Y-305126247D02*
X142714285Y-304745295D01*
X142714285Y-304745295D02*
X142666666Y-304650057D01*
X142666666Y-304650057D02*
X142619047Y-304602438D01*
X142619047Y-304602438D02*
X142523809Y-304554819D01*
X142523809Y-304554819D02*
X142333333Y-304554819D01*
X142333333Y-304554819D02*
X142238095Y-304602438D01*
X142238095Y-304602438D02*
X142190476Y-304650057D01*
X142190476Y-304650057D02*
X142142857Y-304745295D01*
X142142857Y-304745295D02*
X142142857Y-304983390D01*
X142142857Y-304983390D02*
X142190476Y-305078628D01*
X142190476Y-305078628D02*
X142238095Y-305126247D01*
X142238095Y-305126247D02*
X142333333Y-305173866D01*
X142333333Y-305173866D02*
X142523809Y-305173866D01*
X142523809Y-305173866D02*
X142619047Y-305126247D01*
X142619047Y-305126247D02*
X142666666Y-305078628D01*
X142666666Y-305078628D02*
X142714285Y-304983390D01*
X143000000Y-304554819D02*
X143333333Y-305554819D01*
X143333333Y-305554819D02*
X143666666Y-304554819D01*
X140828571Y-362807200D02*
X140971428Y-362854819D01*
X140971428Y-362854819D02*
X141209523Y-362854819D01*
X141209523Y-362854819D02*
X141304761Y-362807200D01*
X141304761Y-362807200D02*
X141352380Y-362759580D01*
X141352380Y-362759580D02*
X141399999Y-362664342D01*
X141399999Y-362664342D02*
X141399999Y-362569104D01*
X141399999Y-362569104D02*
X141352380Y-362473866D01*
X141352380Y-362473866D02*
X141304761Y-362426247D01*
X141304761Y-362426247D02*
X141209523Y-362378628D01*
X141209523Y-362378628D02*
X141019047Y-362331009D01*
X141019047Y-362331009D02*
X140923809Y-362283390D01*
X140923809Y-362283390D02*
X140876190Y-362235771D01*
X140876190Y-362235771D02*
X140828571Y-362140533D01*
X140828571Y-362140533D02*
X140828571Y-362045295D01*
X140828571Y-362045295D02*
X140876190Y-361950057D01*
X140876190Y-361950057D02*
X140923809Y-361902438D01*
X140923809Y-361902438D02*
X141019047Y-361854819D01*
X141019047Y-361854819D02*
X141257142Y-361854819D01*
X141257142Y-361854819D02*
X141399999Y-361902438D01*
X143066666Y-361854819D02*
X142590476Y-361854819D01*
X142590476Y-361854819D02*
X142542857Y-362331009D01*
X142542857Y-362331009D02*
X142590476Y-362283390D01*
X142590476Y-362283390D02*
X142685714Y-362235771D01*
X142685714Y-362235771D02*
X142923809Y-362235771D01*
X142923809Y-362235771D02*
X143019047Y-362283390D01*
X143019047Y-362283390D02*
X143066666Y-362331009D01*
X143066666Y-362331009D02*
X143114285Y-362426247D01*
X143114285Y-362426247D02*
X143114285Y-362664342D01*
X143114285Y-362664342D02*
X143066666Y-362759580D01*
X143066666Y-362759580D02*
X143019047Y-362807200D01*
X143019047Y-362807200D02*
X142923809Y-362854819D01*
X142923809Y-362854819D02*
X142685714Y-362854819D01*
X142685714Y-362854819D02*
X142590476Y-362807200D01*
X142590476Y-362807200D02*
X142542857Y-362759580D01*
X143400000Y-361854819D02*
X143733333Y-362854819D01*
X143733333Y-362854819D02*
X144066666Y-361854819D01*
X110236095Y-358404438D02*
X110140857Y-358356819D01*
X110140857Y-358356819D02*
X109998000Y-358356819D01*
X109998000Y-358356819D02*
X109855143Y-358404438D01*
X109855143Y-358404438D02*
X109759905Y-358499676D01*
X109759905Y-358499676D02*
X109712286Y-358594914D01*
X109712286Y-358594914D02*
X109664667Y-358785390D01*
X109664667Y-358785390D02*
X109664667Y-358928247D01*
X109664667Y-358928247D02*
X109712286Y-359118723D01*
X109712286Y-359118723D02*
X109759905Y-359213961D01*
X109759905Y-359213961D02*
X109855143Y-359309200D01*
X109855143Y-359309200D02*
X109998000Y-359356819D01*
X109998000Y-359356819D02*
X110093238Y-359356819D01*
X110093238Y-359356819D02*
X110236095Y-359309200D01*
X110236095Y-359309200D02*
X110283714Y-359261580D01*
X110283714Y-359261580D02*
X110283714Y-358928247D01*
X110283714Y-358928247D02*
X110093238Y-358928247D01*
X110712286Y-359356819D02*
X110712286Y-358356819D01*
X110712286Y-358356819D02*
X111283714Y-359356819D01*
X111283714Y-359356819D02*
X111283714Y-358356819D01*
X111759905Y-359356819D02*
X111759905Y-358356819D01*
X111759905Y-358356819D02*
X111998000Y-358356819D01*
X111998000Y-358356819D02*
X112140857Y-358404438D01*
X112140857Y-358404438D02*
X112236095Y-358499676D01*
X112236095Y-358499676D02*
X112283714Y-358594914D01*
X112283714Y-358594914D02*
X112331333Y-358785390D01*
X112331333Y-358785390D02*
X112331333Y-358928247D01*
X112331333Y-358928247D02*
X112283714Y-359118723D01*
X112283714Y-359118723D02*
X112236095Y-359213961D01*
X112236095Y-359213961D02*
X112140857Y-359309200D01*
X112140857Y-359309200D02*
X111998000Y-359356819D01*
X111998000Y-359356819D02*
X111759905Y-359356819D01*
D12*
%TO.C,S 9V*%
X129810800Y-307106600D02*
X129810800Y-303169600D01*
X139767600Y-307106600D02*
X129810800Y-307106600D01*
X129810800Y-303169600D02*
X139767600Y-303169600D01*
X139767600Y-303169600D02*
X139793000Y-307106600D01*
%TO.C,A1*%
X120551001Y-308755001D02*
X120551001Y-311425001D01*
X120551001Y-313965001D02*
X120551001Y-352195001D01*
X120551001Y-352195001D02*
X138591001Y-352195001D01*
X123221001Y-311425001D02*
X120551001Y-311425001D01*
X123221001Y-313965001D02*
X120551001Y-313965001D01*
X123221001Y-313965001D02*
X123221001Y-311425001D01*
X123221001Y-313965001D02*
X123221001Y-349525001D01*
X123221001Y-349525001D02*
X120551001Y-349525001D01*
X135921001Y-311425001D02*
X135921001Y-349525001D01*
X135921001Y-311425001D02*
X138591001Y-311425001D01*
X135921001Y-349525001D02*
X138591001Y-349525001D01*
X138591001Y-308755001D02*
X120551001Y-308755001D01*
X138591001Y-352195001D02*
X138591001Y-308755001D01*
%TO.C,S 5V*%
X140741400Y-351078800D02*
X144678400Y-351078800D01*
X140741400Y-361035600D02*
X140741400Y-351078800D01*
X144678400Y-351078800D02*
X144678400Y-361035600D01*
X144678400Y-361035600D02*
X140741400Y-361061000D01*
%TD*%
M02*
