%TF.GenerationSoftware,KiCad,Pcbnew,9.0.6*%
%TF.CreationDate,2025-12-02T14:29:33+01:00*%
%TF.ProjectId,NANO_Shield,4e414e4f-5f53-4686-9965-6c642e6b6963,rev?*%
%TF.SameCoordinates,Original*%
%TF.FileFunction,Soldermask,Top*%
%TF.FilePolarity,Negative*%
%FSLAX46Y46*%
G04 Gerber Fmt 4.6, Leading zero omitted, Abs format (unit mm)*
G04 Created by KiCad (PCBNEW 9.0.6) date 2025-12-02 14:29:33*
%MOMM*%
%LPD*%
G01*
G04 APERTURE LIST*
G04 Aperture macros list*
%AMRoundRect*
0 Rectangle with rounded corners*
0 $1 Rounding radius*
0 $2 $3 $4 $5 $6 $7 $8 $9 X,Y pos of 4 corners*
0 Add a 4 corners polygon primitive as box body*
4,1,4,$2,$3,$4,$5,$6,$7,$8,$9,$2,$3,0*
0 Add four circle primitives for the rounded corners*
1,1,$1+$1,$2,$3*
1,1,$1+$1,$4,$5*
1,1,$1+$1,$6,$7*
1,1,$1+$1,$8,$9*
0 Add four rect primitives between the rounded corners*
20,1,$1+$1,$2,$3,$4,$5,0*
20,1,$1+$1,$4,$5,$6,$7,0*
20,1,$1+$1,$6,$7,$8,$9,0*
20,1,$1+$1,$8,$9,$2,$3,0*%
G04 Aperture macros list end*
%ADD10C,0.150000*%
%ADD11C,2.100000*%
%ADD12RoundRect,0.050000X-0.800000X-0.800000X0.800000X-0.800000X0.800000X0.800000X-0.800000X0.800000X0*%
%ADD13O,1.700000X1.700000*%
%ADD14RoundRect,0.050000X-1.000000X-1.000000X1.000000X-1.000000X1.000000X1.000000X-1.000000X1.000000X0*%
G04 APERTURE END LIST*
D10*
X123909524Y-360254819D02*
X123909524Y-359254819D01*
X124480952Y-360254819D02*
X124052381Y-359683390D01*
X124480952Y-359254819D02*
X123909524Y-359826247D01*
X124909524Y-360254819D02*
X124909524Y-359254819D01*
X124909524Y-359731009D02*
X125480952Y-359731009D01*
X125480952Y-360254819D02*
X125480952Y-359254819D01*
X126290476Y-359731009D02*
X125957143Y-359731009D01*
X125957143Y-360254819D02*
X125957143Y-359254819D01*
X125957143Y-359254819D02*
X126433333Y-359254819D01*
X128100000Y-360254819D02*
X127528572Y-360254819D01*
X127814286Y-360254819D02*
X127814286Y-359254819D01*
X127814286Y-359254819D02*
X127719048Y-359397676D01*
X127719048Y-359397676D02*
X127623810Y-359492914D01*
X127623810Y-359492914D02*
X127528572Y-359540533D01*
X128480953Y-359350057D02*
X128528572Y-359302438D01*
X128528572Y-359302438D02*
X128623810Y-359254819D01*
X128623810Y-359254819D02*
X128861905Y-359254819D01*
X128861905Y-359254819D02*
X128957143Y-359302438D01*
X128957143Y-359302438D02*
X129004762Y-359350057D01*
X129004762Y-359350057D02*
X129052381Y-359445295D01*
X129052381Y-359445295D02*
X129052381Y-359540533D01*
X129052381Y-359540533D02*
X129004762Y-359683390D01*
X129004762Y-359683390D02*
X128433334Y-360254819D01*
X128433334Y-360254819D02*
X129052381Y-360254819D01*
X129480953Y-360159580D02*
X129528572Y-360207200D01*
X129528572Y-360207200D02*
X129480953Y-360254819D01*
X129480953Y-360254819D02*
X129433334Y-360207200D01*
X129433334Y-360207200D02*
X129480953Y-360159580D01*
X129480953Y-360159580D02*
X129480953Y-360254819D01*
X129909524Y-359350057D02*
X129957143Y-359302438D01*
X129957143Y-359302438D02*
X130052381Y-359254819D01*
X130052381Y-359254819D02*
X130290476Y-359254819D01*
X130290476Y-359254819D02*
X130385714Y-359302438D01*
X130385714Y-359302438D02*
X130433333Y-359350057D01*
X130433333Y-359350057D02*
X130480952Y-359445295D01*
X130480952Y-359445295D02*
X130480952Y-359540533D01*
X130480952Y-359540533D02*
X130433333Y-359683390D01*
X130433333Y-359683390D02*
X129861905Y-360254819D01*
X129861905Y-360254819D02*
X130480952Y-360254819D01*
X131100000Y-359254819D02*
X131195238Y-359254819D01*
X131195238Y-359254819D02*
X131290476Y-359302438D01*
X131290476Y-359302438D02*
X131338095Y-359350057D01*
X131338095Y-359350057D02*
X131385714Y-359445295D01*
X131385714Y-359445295D02*
X131433333Y-359635771D01*
X131433333Y-359635771D02*
X131433333Y-359873866D01*
X131433333Y-359873866D02*
X131385714Y-360064342D01*
X131385714Y-360064342D02*
X131338095Y-360159580D01*
X131338095Y-360159580D02*
X131290476Y-360207200D01*
X131290476Y-360207200D02*
X131195238Y-360254819D01*
X131195238Y-360254819D02*
X131100000Y-360254819D01*
X131100000Y-360254819D02*
X131004762Y-360207200D01*
X131004762Y-360207200D02*
X130957143Y-360159580D01*
X130957143Y-360159580D02*
X130909524Y-360064342D01*
X130909524Y-360064342D02*
X130861905Y-359873866D01*
X130861905Y-359873866D02*
X130861905Y-359635771D01*
X130861905Y-359635771D02*
X130909524Y-359445295D01*
X130909524Y-359445295D02*
X130957143Y-359350057D01*
X130957143Y-359350057D02*
X131004762Y-359302438D01*
X131004762Y-359302438D02*
X131100000Y-359254819D01*
X131814286Y-359350057D02*
X131861905Y-359302438D01*
X131861905Y-359302438D02*
X131957143Y-359254819D01*
X131957143Y-359254819D02*
X132195238Y-359254819D01*
X132195238Y-359254819D02*
X132290476Y-359302438D01*
X132290476Y-359302438D02*
X132338095Y-359350057D01*
X132338095Y-359350057D02*
X132385714Y-359445295D01*
X132385714Y-359445295D02*
X132385714Y-359540533D01*
X132385714Y-359540533D02*
X132338095Y-359683390D01*
X132338095Y-359683390D02*
X131766667Y-360254819D01*
X131766667Y-360254819D02*
X132385714Y-360254819D01*
X133290476Y-359254819D02*
X132814286Y-359254819D01*
X132814286Y-359254819D02*
X132766667Y-359731009D01*
X132766667Y-359731009D02*
X132814286Y-359683390D01*
X132814286Y-359683390D02*
X132909524Y-359635771D01*
X132909524Y-359635771D02*
X133147619Y-359635771D01*
X133147619Y-359635771D02*
X133242857Y-359683390D01*
X133242857Y-359683390D02*
X133290476Y-359731009D01*
X133290476Y-359731009D02*
X133338095Y-359826247D01*
X133338095Y-359826247D02*
X133338095Y-360064342D01*
X133338095Y-360064342D02*
X133290476Y-360159580D01*
X133290476Y-360159580D02*
X133242857Y-360207200D01*
X133242857Y-360207200D02*
X133147619Y-360254819D01*
X133147619Y-360254819D02*
X132909524Y-360254819D01*
X132909524Y-360254819D02*
X132814286Y-360207200D01*
X132814286Y-360207200D02*
X132766667Y-360159580D01*
D11*
%TO.C,S 9V*%
X137380000Y-305100000D03*
X134840000Y-305100000D03*
X132300000Y-305100000D03*
%TD*%
%TO.C,*%
X127000000Y-305100000D03*
%TD*%
%TO.C,*%
X122900000Y-305100000D03*
%TD*%
D12*
%TO.C,A1*%
X121951001Y-312695001D03*
D13*
X121951001Y-315235001D03*
X121951001Y-317775001D03*
X121951001Y-320315001D03*
X121951001Y-322855001D03*
X121951001Y-325395001D03*
X121951001Y-327935001D03*
X121951001Y-330475001D03*
X121951001Y-333015001D03*
X121951001Y-335555001D03*
X121951001Y-338095001D03*
X121951001Y-340635001D03*
X121951001Y-343175001D03*
X121951001Y-345715001D03*
X121951001Y-348255001D03*
X137191001Y-348255001D03*
X137191001Y-345715001D03*
X137191001Y-343175001D03*
X137191001Y-340635001D03*
X137191001Y-338095001D03*
X137191001Y-335555001D03*
X137191001Y-333015001D03*
X137191001Y-330475001D03*
X137191001Y-327935001D03*
X137191001Y-325395001D03*
X137191001Y-322855001D03*
X137191001Y-320315001D03*
X137191001Y-317775001D03*
X137191001Y-315235001D03*
X137191001Y-312695001D03*
%TD*%
D11*
%TO.C,J2*%
X114046000Y-312420000D03*
X114046000Y-314960000D03*
X114046000Y-317500000D03*
X114046000Y-320040000D03*
X114046000Y-322580000D03*
X114046000Y-325120000D03*
X114046000Y-327660000D03*
X114046000Y-330200000D03*
X114046000Y-332740000D03*
X114046000Y-335280000D03*
X114046000Y-337820000D03*
X114046000Y-340360000D03*
X114046000Y-342900000D03*
X114046000Y-345440000D03*
X114046000Y-347980000D03*
X114046000Y-350520000D03*
%TD*%
%TO.C,J3*%
X116650000Y-312430000D03*
X116650000Y-314970000D03*
X116650000Y-317510000D03*
X116650000Y-320050000D03*
X116650000Y-322590000D03*
X116650000Y-325130000D03*
X116650000Y-327670000D03*
X116650000Y-330210000D03*
X116650000Y-332750000D03*
X116650000Y-335290000D03*
X116650000Y-337830000D03*
X116650000Y-340370000D03*
X116650000Y-342910000D03*
X116650000Y-345450000D03*
X116650000Y-347990000D03*
X116650000Y-350530000D03*
%TD*%
%TO.C,J4*%
X142748000Y-348234000D03*
X142748000Y-345694000D03*
X142748000Y-343154000D03*
X142748000Y-340614000D03*
X142748000Y-338074000D03*
X142748000Y-335534000D03*
X142748000Y-332994000D03*
X142748000Y-330454000D03*
X142748000Y-327914000D03*
X142748000Y-325374000D03*
X142748000Y-322834000D03*
X142748000Y-320294000D03*
X142748000Y-317754000D03*
X142748000Y-315214000D03*
X142748000Y-312674000D03*
X142748000Y-310134000D03*
%TD*%
%TO.C,S 5V*%
X142748000Y-358648000D03*
X142748000Y-356108000D03*
X142748000Y-353568000D03*
%TD*%
%TO.C,GND*%
X110998000Y-356616000D03*
D14*
X116078000Y-356616000D03*
%TD*%
D11*
%TO.C,J1*%
X111506000Y-350520000D03*
X111506000Y-347980000D03*
X111506000Y-345440000D03*
X111506000Y-342900000D03*
X111506000Y-340360000D03*
X111506000Y-337820000D03*
X111506000Y-335280000D03*
X111506000Y-332740000D03*
X111506000Y-330200000D03*
X111506000Y-327660000D03*
X111506000Y-325120000D03*
X111506000Y-322580000D03*
X111506000Y-320040000D03*
X111506000Y-317500000D03*
X111506000Y-314960000D03*
X111506000Y-312420000D03*
%TD*%
M02*
